<svg width="182" height="32" viewBox="0 0 182 32" fill="none" xmlns="http://www.w3.org/2000/svg">
<path opacity="0.5" d="M23.948 10.966C23.64 8.446 22.772 6.514 21.344 5.17C19.916 3.798 18.054 3.098 15.758 3.07C14.302 3.07 12.958 3.392 11.726 4.036C10.494 4.68 9.43 5.59 8.534 6.766C7.638 7.914 6.938 9.286 6.434 10.882C5.958 12.45 5.72 14.172 5.72 16.048C5.72 18.596 6.168 20.864 7.064 22.852C7.96 24.812 9.192 26.338 10.76 27.43C12.356 28.522 14.162 29.068 16.178 29.068C17.97 29.068 19.734 28.648 21.47 27.808C23.234 26.94 24.69 25.722 25.838 24.154L27.224 25.33C25.964 27.066 24.62 28.396 23.192 29.32C21.764 30.244 20.336 30.86 18.908 31.168C17.508 31.504 16.234 31.672 15.086 31.672C12.986 31.672 11.054 31.294 9.29 30.538C7.526 29.782 6 28.732 4.712 27.388C3.452 26.016 2.472 24.434 1.772 22.642C1.1 20.822 0.764 18.862 0.764 16.762C0.764 14.802 1.072 12.884 1.688 11.008C2.304 9.132 3.214 7.438 4.418 5.926C5.622 4.386 7.134 3.168 8.954 2.272C10.802 1.376 12.944 0.927999 15.38 0.927999C16.808 0.927999 18.194 1.124 19.538 1.516C20.91 1.908 22.226 2.51 23.486 3.322L23.276 1.222H25.88V10.966H23.948ZM43.2811 3.448C42.3851 3.476 41.7271 3.672 41.3071 4.036C40.8871 4.372 40.6211 4.876 40.5091 5.548C40.3971 6.192 40.3411 7.046 40.3411 8.11V25.372C40.3411 26.128 40.3271 26.814 40.2991 27.43C40.2991 28.018 40.2711 28.494 40.2151 28.858C40.6911 28.802 41.2091 28.774 41.7691 28.774C42.3571 28.746 42.8611 28.718 43.2811 28.69V31H32.9491V29.152C33.8731 29.096 34.5311 28.9 34.9231 28.564C35.3431 28.228 35.6091 27.724 35.7211 27.052C35.8331 26.38 35.8891 25.526 35.8891 24.49V7.018C35.8891 6.402 35.9031 5.814 35.9311 5.254C35.9591 4.666 35.9871 4.162 36.0151 3.742C35.5391 3.77 35.0211 3.798 34.4611 3.826C33.9011 3.854 33.3971 3.882 32.9491 3.91V1.6H43.2811V3.448ZM65.8168 31.42C64.6688 28.788 63.5208 26.156 62.3728 23.524C61.2248 20.892 60.0908 18.246 58.9708 15.586C58.6348 14.802 58.2848 13.948 57.9208 13.024C57.5568 12.1 57.1928 11.12 56.8288 10.084C56.4648 9.048 56.1148 7.998 55.7788 6.934C55.7788 7.662 55.7788 8.362 55.7788 9.034C55.7788 9.706 55.7788 10.35 55.7788 10.966C55.7508 11.834 55.7228 12.856 55.6948 14.032C55.6668 15.18 55.6248 16.398 55.5688 17.686C55.5408 18.974 55.5128 20.262 55.4848 21.55C55.4848 22.81 55.4708 24.028 55.4428 25.204C55.4428 25.876 55.4288 26.534 55.4008 27.178C55.3728 27.822 55.3308 28.382 55.2748 28.858C55.7788 28.802 56.3108 28.774 56.8708 28.774C57.4588 28.746 57.9768 28.718 58.4248 28.69V31H49.8988V29.152C50.6828 29.124 51.2848 28.97 51.7048 28.69C52.1248 28.41 52.4048 27.99 52.5448 27.43C52.7128 26.87 52.8108 26.184 52.8388 25.372L53.4268 7.228C53.4548 6.612 53.4828 5.996 53.5108 5.38C53.5388 4.764 53.5668 4.218 53.5948 3.742C53.0908 3.77 52.5588 3.798 51.9988 3.826C51.4388 3.826 50.9488 3.84 50.5288 3.868V1.6H57.8788L64.8088 18.148C65.1448 18.904 65.4808 19.716 65.8168 20.584C66.1528 21.424 66.4888 22.264 66.8248 23.104C67.1888 23.916 67.5108 24.686 67.7908 25.414H67.8748C68.1828 24.574 68.5328 23.65 68.9248 22.642C69.3168 21.634 69.6528 20.738 69.9328 19.954C71.1368 16.93 72.3548 13.906 73.5868 10.882C74.8468 7.858 76.0788 4.764 77.2828 1.6H84.6748V3.448C84.0028 3.448 83.4288 3.574 82.9528 3.826C82.5048 4.05 82.1688 4.47 81.9448 5.086C81.7488 5.702 81.6788 6.584 81.7348 7.732L82.6588 25.834C82.7148 26.394 82.7288 26.94 82.7008 27.472C82.7008 28.004 82.6868 28.452 82.6588 28.816C83.1628 28.788 83.6948 28.774 84.2548 28.774C84.8428 28.746 85.3468 28.718 85.7668 28.69V31H75.6028V29.152C76.4148 29.124 77.0308 28.956 77.4508 28.648C77.8988 28.34 78.1928 27.864 78.3328 27.22C78.4728 26.548 78.5148 25.68 78.4588 24.616L77.7868 12.394C77.7588 11.974 77.7308 11.484 77.7028 10.924C77.6748 10.336 77.6328 9.734 77.5768 9.118C77.5488 8.474 77.5208 7.858 77.4928 7.27C77.4088 7.466 77.3248 7.676 77.2408 7.9C77.1568 8.096 77.0728 8.32 76.9888 8.572L67.9588 31.42H65.8168ZM106.167 31.672C103.507 31.672 101.225 31.224 99.3206 30.328C97.4446 29.432 95.9186 28.242 94.7426 26.758C93.5666 25.246 92.6986 23.58 92.1386 21.76C91.5786 19.94 91.2986 18.12 91.2986 16.3C91.2986 14.536 91.5926 12.758 92.1806 10.966C92.7966 9.146 93.7066 7.48 94.9106 5.968C96.1426 4.456 97.6686 3.238 99.4886 2.314C101.337 1.39 103.493 0.927999 105.957 0.927999C108.533 0.927999 110.745 1.39 112.593 2.314C114.469 3.238 116.009 4.47 117.213 6.01C118.417 7.522 119.313 9.174 119.901 10.966C120.517 12.758 120.825 14.536 120.825 16.3C120.825 18.036 120.517 19.814 119.901 21.634C119.313 23.426 118.403 25.092 117.171 26.632C115.967 28.144 114.455 29.362 112.635 30.286C110.815 31.21 108.659 31.672 106.167 31.672ZM106.377 29.488C108.001 29.488 109.401 29.124 110.577 28.396C111.781 27.668 112.761 26.702 113.517 25.498C114.301 24.266 114.875 22.922 115.239 21.466C115.603 19.982 115.785 18.512 115.785 17.056C115.785 15.264 115.575 13.542 115.155 11.89C114.735 10.21 114.091 8.712 113.223 7.396C112.383 6.052 111.333 5.002 110.073 4.246C108.813 3.462 107.357 3.07 105.705 3.07C104.081 3.07 102.667 3.448 101.463 4.204C100.259 4.96 99.2786 5.954 98.5226 7.186C97.7666 8.39 97.1926 9.734 96.8006 11.218C96.4366 12.674 96.2546 14.144 96.2546 15.628C96.2546 17.084 96.4506 18.624 96.8426 20.248C97.2346 21.872 97.8366 23.384 98.6486 24.784C99.4606 26.184 100.497 27.318 101.757 28.186C103.045 29.054 104.585 29.488 106.377 29.488ZM126.888 31V29.152C127.812 29.096 128.47 28.9 128.862 28.564C129.282 28.228 129.548 27.724 129.66 27.052C129.772 26.38 129.828 25.526 129.828 24.49V7.018C129.828 6.402 129.842 5.814 129.87 5.254C129.898 4.666 129.926 4.162 129.954 3.742C129.478 3.77 128.96 3.798 128.4 3.826C127.84 3.854 127.336 3.882 126.888 3.91V1.6C128.596 1.572 130.318 1.558 132.054 1.558C133.79 1.53 135.54 1.53 137.304 1.558C139.936 1.558 142.106 1.866 143.814 2.482C145.522 3.07 146.796 3.952 147.636 5.128C148.504 6.304 148.924 7.788 148.896 9.58C148.924 10.7 148.7 11.82 148.224 12.94C147.748 14.032 146.95 15.012 145.83 15.88C144.71 16.748 143.17 17.406 141.21 17.854C141.77 18.19 142.274 18.652 142.722 19.24C143.17 19.828 143.632 20.486 144.108 21.214L146.67 25.162C147.202 26.002 147.692 26.716 148.14 27.304C148.588 27.892 149.092 28.354 149.652 28.69C150.212 28.998 150.884 29.152 151.668 29.152V31H145.83C145.102 30.384 144.472 29.726 143.94 29.026C143.436 28.298 142.89 27.486 142.302 26.59L139.404 21.886C139.04 21.326 138.648 20.724 138.228 20.08C137.836 19.436 137.402 18.89 136.926 18.442C136.478 18.442 136.03 18.442 135.582 18.442C135.162 18.442 134.728 18.442 134.28 18.442V25.372C134.28 26.128 134.266 26.814 134.238 27.43C134.238 28.018 134.21 28.494 134.154 28.858C134.49 28.83 134.84 28.816 135.204 28.816C135.596 28.788 135.974 28.76 136.338 28.732C136.73 28.704 137.066 28.69 137.346 28.69V31H126.888ZM136.716 16.384C138.256 16.356 139.572 16.118 140.664 15.67C141.756 15.194 142.596 14.48 143.184 13.528C143.772 12.548 144.066 11.288 144.066 9.748C144.066 8.6 143.898 7.634 143.562 6.85C143.226 6.066 142.75 5.436 142.134 4.96C141.518 4.456 140.776 4.106 139.908 3.91C139.068 3.686 138.158 3.574 137.178 3.574C136.282 3.574 135.624 3.742 135.204 4.078C134.812 4.414 134.56 4.904 134.448 5.548C134.336 6.192 134.28 7.018 134.28 8.026V16.258C134.7 16.286 135.092 16.328 135.456 16.384C135.848 16.412 136.268 16.412 136.716 16.384ZM162.704 31V29.152C163.628 29.096 164.286 28.9 164.678 28.564C165.07 28.228 165.322 27.724 165.434 27.052C165.546 26.352 165.602 25.498 165.602 24.49L165.644 20.08L158.168 8.32C157.58 7.34 157.104 6.472 156.74 5.716C156.404 4.96 156.208 4.33 156.152 3.826C155.704 3.854 155.284 3.868 154.892 3.868C154.5 3.868 154.108 3.882 153.716 3.91V1.6H165.056V3.448C163.936 3.42 163.11 3.574 162.578 3.91C162.074 4.246 161.85 4.736 161.906 5.38C161.962 5.996 162.242 6.724 162.746 7.564L166.064 12.856C166.288 13.192 166.54 13.584 166.82 14.032C167.1 14.48 167.38 14.942 167.66 15.418C167.968 15.866 168.248 16.328 168.5 16.804H168.584C168.836 16.272 169.116 15.712 169.424 15.124C169.76 14.508 170.096 13.836 170.432 13.108L173.54 7.186C173.68 6.906 173.862 6.556 174.086 6.136C174.31 5.716 174.548 5.296 174.8 4.876C175.08 4.428 175.36 4.064 175.64 3.784C175.136 3.812 174.576 3.84 173.96 3.868C173.372 3.868 172.84 3.882 172.364 3.91V1.6H181.142V3.448C179.91 3.56 178.874 4.022 178.034 4.834C177.222 5.618 176.354 6.864 175.43 8.572C174.506 10.336 173.596 12.072 172.7 13.78C171.804 15.46 170.936 17.112 170.096 18.736C170.096 19.184 170.082 19.758 170.054 20.458C170.054 21.158 170.054 21.858 170.054 22.558C170.054 23.258 170.054 23.874 170.054 24.406C170.054 24.91 170.054 25.232 170.054 25.372C170.054 26.128 170.04 26.814 170.012 27.43C170.012 28.018 169.984 28.494 169.928 28.858C170.488 28.802 171.076 28.774 171.692 28.774C172.336 28.746 172.896 28.718 173.372 28.69V31H162.704Z" fill="#90C6CD"/>
</svg>
