<svg width="205" height="61" viewBox="0 0 205 61" fill="none" xmlns="http://www.w3.org/2000/svg">
<path opacity="0.5" d="M12.244 41.215C10.5813 41.215 8.70367 41.0717 6.611 40.785C5.46433 40.6417 4.676 40.3407 4.246 39.882C3.816 39.4233 3.62967 38.678 3.687 37.646C3.88767 34.808 4.36067 31.3107 5.106 27.154C5.85133 22.9687 6.75433 18.941 7.815 15.071C8.01567 14.3543 8.417 13.8527 9.019 13.566C9.621 13.2793 10.4093 13.136 11.384 13.136C13.1327 13.136 14.007 13.6233 14.007 14.598C14.007 14.9993 13.921 15.458 13.749 15.974C13.0037 18.2673 12.2583 21.349 11.513 25.219C10.7677 29.0603 10.2373 32.7297 9.922 36.227C10.782 36.313 11.7567 36.356 12.846 36.356C17.8627 36.356 21.6037 34.8367 24.069 31.798C26.563 28.7593 27.81 24.703 27.81 19.629C27.81 16.2177 26.8353 13.5803 24.886 11.717C22.9367 9.85366 20.1847 8.922 16.63 8.922C14.3367 8.922 12.0577 9.28033 9.793 9.997C7.557 10.7137 5.536 11.6597 3.73 12.835C3.35733 13.093 2.956 13.222 2.526 13.222C2.03867 13.222 1.65167 13.0213 1.365 12.62C1.07833 12.19 0.935 11.674 0.935 11.072C0.935 10.384 1.04967 9.825 1.279 9.395C1.50833 8.93633 1.89533 8.52066 2.44 8.148C4.418 6.80066 6.74 5.783 9.406 5.095C12.072 4.37833 14.6377 4.02 17.103 4.02C20.6003 4.02 23.6247 4.63633 26.176 5.869C28.7273 7.073 30.691 8.85033 32.067 11.201C33.443 13.5517 34.131 16.3897 34.131 19.715C34.131 24.0437 33.271 27.8277 31.551 31.067C29.831 34.2777 27.3227 36.7717 24.026 38.549C20.7293 40.3263 16.802 41.215 12.244 41.215ZM41.4585 41.215C39.6811 41.215 38.2621 40.57 37.2015 39.28C36.1408 37.99 35.6105 36.2987 35.6105 34.206C35.6105 31.9127 36.1408 29.7483 37.2015 27.713C38.2621 25.649 39.6668 24.0007 41.4155 22.768C43.1928 21.5067 45.0705 20.876 47.0485 20.876C47.6791 20.876 48.0948 21.005 48.2955 21.263C48.5248 21.4923 48.7111 21.9223 48.8545 22.553C49.4565 22.4383 50.0871 22.381 50.7465 22.381C52.1511 22.381 52.8535 22.8827 52.8535 23.886C52.8535 24.488 52.6385 25.9213 52.2085 28.186C51.5491 31.4827 51.2195 33.776 51.2195 35.066C51.2195 35.496 51.3198 35.84 51.5205 36.098C51.7498 36.356 52.0365 36.485 52.3805 36.485C52.9251 36.485 53.5845 36.141 54.3585 35.453C55.1325 34.7363 56.1788 33.5897 57.4975 32.013C57.8415 31.6117 58.2285 31.411 58.6585 31.411C59.0311 31.411 59.3178 31.583 59.5185 31.927C59.7478 32.271 59.8625 32.744 59.8625 33.346C59.8625 34.4927 59.5901 35.3813 59.0455 36.012C57.8701 37.474 56.6231 38.7067 55.3045 39.71C53.9858 40.7133 52.7101 41.215 51.4775 41.215C50.5315 41.215 49.6571 40.8997 48.8545 40.269C48.0805 39.6097 47.4928 38.721 47.0915 37.603C45.6008 40.011 43.7231 41.215 41.4585 41.215ZM43.0065 36.872C43.6371 36.872 44.2391 36.4993 44.8125 35.754C45.3858 35.0087 45.8015 34.0197 46.0595 32.787L47.6505 24.875C46.4465 24.9037 45.3285 25.3623 44.2965 26.251C43.2931 27.111 42.4905 28.2577 41.8885 29.691C41.2865 31.1243 40.9855 32.6437 40.9855 34.249C40.9855 35.1377 41.1575 35.797 41.5015 36.227C41.8741 36.657 42.3758 36.872 43.0065 36.872ZM62.0007 18.124C60.7967 18.124 59.8937 17.8517 59.2917 17.307C58.6897 16.7337 58.3887 15.9453 58.3887 14.942C58.3887 13.9387 58.7757 13.1073 59.5497 12.448C60.3524 11.76 61.3414 11.416 62.5167 11.416C63.5774 11.416 64.4374 11.674 65.0967 12.19C65.756 12.706 66.0857 13.437 66.0857 14.383C66.0857 15.5297 65.713 16.447 64.9677 17.135C64.2224 17.7943 63.2334 18.124 62.0007 18.124ZM61.6567 41.215C59.7934 41.215 58.4317 40.5557 57.5717 39.237C56.7404 37.9183 56.3247 36.1697 56.3247 33.991C56.3247 32.701 56.4824 31.0527 56.7977 29.046C57.1417 27.0107 57.5717 25.1187 58.0877 23.37C58.3457 22.4527 58.6897 21.822 59.1197 21.478C59.5497 21.134 60.2377 20.962 61.1837 20.962C62.6457 20.962 63.3767 21.4493 63.3767 22.424C63.3767 23.1407 63.1044 24.8033 62.5597 27.412C61.8717 30.5653 61.5277 32.701 61.5277 33.819C61.5277 34.679 61.6424 35.3383 61.8717 35.797C62.101 36.2557 62.488 36.485 63.0327 36.485C63.5487 36.485 64.1937 36.1267 64.9677 35.41C65.7417 34.6933 66.7737 33.561 68.0637 32.013C68.4077 31.6117 68.7947 31.411 69.2247 31.411C69.5974 31.411 69.884 31.583 70.0847 31.927C70.314 32.271 70.4287 32.744 70.4287 33.346C70.4287 34.4927 70.1564 35.3813 69.6117 36.012C66.7737 39.4807 64.122 41.215 61.6567 41.215ZM70.0027 41.215C68.9134 41.215 68.1394 40.6417 67.6807 39.495C67.2507 38.3483 67.0357 36.5137 67.0357 33.991C67.0357 30.2643 67.5661 26.724 68.6267 23.37C68.8847 22.5387 69.3004 21.9367 69.8737 21.564C70.4757 21.1627 71.3071 20.962 72.3677 20.962C72.9411 20.962 73.3424 21.0337 73.5717 21.177C73.8011 21.3203 73.9157 21.5927 73.9157 21.994C73.9157 22.4527 73.7007 23.4847 73.2707 25.09C72.9841 26.2367 72.7547 27.24 72.5827 28.1C72.4107 28.96 72.2674 30.0207 72.1527 31.282C73.0987 28.8167 74.1594 26.81 75.3347 25.262C76.5101 23.714 77.6567 22.6103 78.7747 21.951C79.9214 21.2917 80.9677 20.962 81.9137 20.962C83.7771 20.962 84.7087 21.8937 84.7087 23.757C84.7087 24.1297 84.5797 25.0327 84.3217 26.466C84.0924 27.6127 83.9777 28.3293 83.9777 28.616C83.9777 29.6193 84.3361 30.121 85.0527 30.121C85.8554 30.121 86.8874 29.4903 88.1487 28.229C88.5214 27.8563 88.9084 27.67 89.3097 27.67C89.6824 27.67 89.9691 27.842 90.1697 28.186C90.3991 28.5013 90.5137 28.9313 90.5137 29.476C90.5137 30.5367 90.2271 31.368 89.6537 31.97C88.8511 32.8013 87.9051 33.518 86.8157 34.12C85.7551 34.6933 84.6227 34.98 83.4187 34.98C81.8994 34.98 80.7384 34.593 79.9357 33.819C79.1617 33.045 78.7747 31.9987 78.7747 30.68C78.7747 30.25 78.8177 29.82 78.9037 29.39C78.9611 28.8167 78.9897 28.4297 78.9897 28.229C78.9897 27.7703 78.8321 27.541 78.5167 27.541C78.0867 27.541 77.5134 28.0283 76.7967 29.003C76.1087 29.949 75.4207 31.2103 74.7327 32.787C74.0447 34.3637 73.4857 36.0263 73.0557 37.775C72.7404 39.1223 72.3677 40.0397 71.9377 40.527C71.5364 40.9857 70.8914 41.215 70.0027 41.215ZM108.534 31.497C108.907 31.497 109.193 31.6833 109.394 32.056C109.623 32.4 109.738 32.8443 109.738 33.389C109.738 34.0483 109.638 34.5643 109.437 34.937C109.236 35.3097 108.921 35.6393 108.491 35.926L100.235 41.473C99.1458 47.407 97.7124 52.0653 95.9351 55.448C94.1864 58.8593 91.9504 60.565 89.2271 60.565C87.7651 60.565 86.5754 60.1063 85.6581 59.189C84.7408 58.3003 84.2821 57.125 84.2821 55.663C84.2821 54.3157 84.5831 52.9397 85.1851 51.535C85.8158 50.1303 86.9624 48.5107 88.6251 46.676C90.3164 44.87 92.6958 42.7917 95.7631 40.441L95.8921 39.452C96.0928 38.3913 96.3221 36.872 96.5801 34.894C96.0068 36.958 95.2041 38.5347 94.1721 39.624C93.1401 40.6847 92.0508 41.215 90.9041 41.215C89.6141 41.215 88.5534 40.6273 87.7221 39.452C86.9194 38.248 86.5181 36.7573 86.5181 34.98C86.5181 32.83 86.6614 30.8663 86.9481 29.089C87.2348 27.283 87.7078 25.3767 88.3671 23.37C88.6538 22.51 89.0551 21.8937 89.5711 21.521C90.0871 21.1483 90.9041 20.962 92.0221 20.962C92.6528 20.962 93.0828 21.0623 93.3121 21.263C93.5701 21.4637 93.6991 21.7647 93.6991 22.166C93.6991 22.3953 93.5414 23.1693 93.2261 24.488C92.9394 25.5487 92.7101 26.509 92.5381 27.369C92.3088 28.5443 92.1081 29.6767 91.9361 30.766C91.7641 31.8267 91.6781 32.701 91.6781 33.389C91.6781 34.4783 91.9791 35.023 92.5811 35.023C93.0111 35.023 93.5414 34.593 94.1721 33.733C94.8314 32.873 95.5194 31.5687 96.2361 29.82C96.9814 28.0713 97.6981 25.9213 98.3861 23.37C98.6154 22.51 98.9594 21.8937 99.4181 21.521C99.9054 21.1483 100.622 20.962 101.568 20.962C102.227 20.962 102.686 21.048 102.944 21.22C103.202 21.392 103.331 21.6787 103.331 22.08C103.331 22.7967 102.958 25.262 102.213 29.476L101.095 36.399C103.302 34.7363 105.452 33.217 107.545 31.841C107.918 31.6117 108.247 31.497 108.534 31.497ZM89.7001 56.394C90.4168 56.394 91.2194 55.5627 92.1081 53.9C92.9968 52.2373 93.8854 49.471 94.7741 45.601C92.5668 47.4643 90.9614 49.1557 89.9581 50.675C88.9834 52.223 88.4961 53.5703 88.4961 54.717C88.4961 55.2043 88.5821 55.6057 88.7541 55.921C88.9548 56.2363 89.2701 56.394 89.7001 56.394ZM115.006 41.215C113.946 41.215 113.186 40.9857 112.727 40.527C112.269 40.0397 112.039 39.1367 112.039 37.818C112.039 36.9293 112.125 35.797 112.297 34.421C112.498 33.0163 112.813 31.0957 113.243 28.659C113.989 24.1583 114.576 20.2597 115.006 16.963C115.264 14.899 115.393 13.179 115.393 11.803C115.393 10.513 114.92 9.868 113.974 9.868C113.229 9.868 112.326 10.255 111.265 11.029C110.233 11.7743 109.087 12.9783 107.825 14.641C107.424 15.1857 106.98 15.458 106.492 15.458C106.091 15.458 105.733 15.2717 105.417 14.899C105.131 14.4977 104.987 14.0533 104.987 13.566C104.987 13.1073 105.073 12.6487 105.245 12.19C105.446 11.7027 105.761 11.158 106.191 10.556C107.567 8.63533 109.101 7.159 110.792 6.127C112.484 5.06633 114.175 4.536 115.866 4.536C117.443 4.536 118.647 5.03766 119.478 6.041C120.338 7.04433 120.768 8.50633 120.768 10.427C120.768 11.201 120.697 12.1183 120.553 13.179C120.41 14.211 120.281 15.0567 120.166 15.716C120.052 16.3753 119.966 16.834 119.908 17.092C121.542 12.4193 123.377 9.16566 125.412 7.331C127.448 5.46766 129.684 4.536 132.12 4.536C133.984 4.536 135.446 5.19533 136.506 6.514C137.596 7.83266 138.14 9.696 138.14 12.104C138.14 13.05 138.011 14.2253 137.753 15.63C139.187 11.674 140.864 8.836 142.784 7.116C144.705 5.396 146.912 4.536 149.406 4.536C151.413 4.536 152.947 5.181 154.007 6.471C155.097 7.761 155.641 9.567 155.641 11.889C155.641 13.1503 155.455 14.684 155.082 16.49L152.459 28.788C152.173 30.2213 152.029 31.454 152.029 32.486C152.029 33.69 152.302 34.593 152.846 35.195C153.42 35.797 154.208 36.098 155.211 36.098C156.157 36.098 157.075 35.7827 157.963 35.152C158.881 34.5213 159.956 33.475 161.188 32.013C161.532 31.6117 161.919 31.411 162.349 31.411C162.722 31.411 163.009 31.583 163.209 31.927C163.439 32.271 163.553 32.744 163.553 33.346C163.553 34.464 163.281 35.3527 162.736 36.012C161.246 37.818 159.769 39.1367 158.307 39.968C156.845 40.7993 155.312 41.215 153.706 41.215C151.27 41.215 149.363 40.4983 147.987 39.065C146.611 37.603 145.923 35.6537 145.923 33.217C145.923 31.5257 146.267 29.0747 146.955 25.864L148.675 17.995C148.733 17.737 148.833 17.2783 148.976 16.619C149.12 15.9597 149.234 15.3433 149.32 14.77C149.406 14.168 149.449 13.5803 149.449 13.007C149.449 12.0037 149.249 11.2583 148.847 10.771C148.475 10.255 147.93 9.997 147.213 9.997C145.866 9.997 144.447 10.8713 142.956 12.62C141.494 14.34 140.09 17.2067 138.742 21.22C137.424 25.2333 136.349 30.4507 135.517 36.872C135.317 38.592 134.958 39.753 134.442 40.355C133.955 40.9283 133.152 41.215 132.034 41.215C131.06 41.215 130.343 40.9857 129.884 40.527C129.454 40.0683 129.239 39.2083 129.239 37.947C129.239 36.7717 129.397 35.238 129.712 33.346C130.028 31.4253 130.429 29.175 130.916 26.595C132.235 19.6577 132.894 15.1857 132.894 13.179C132.894 12.0897 132.679 11.287 132.249 10.771C131.848 10.255 131.232 9.997 130.4 9.997C128.996 9.997 127.548 10.7997 126.057 12.405C124.567 13.9817 123.105 16.8053 121.671 20.876C120.267 24.918 119.091 30.3933 118.145 37.302C117.945 38.764 117.644 39.7817 117.242 40.355C116.87 40.9283 116.124 41.215 115.006 41.215ZM165.721 18.124C164.517 18.124 163.614 17.8517 163.012 17.307C162.41 16.7337 162.109 15.9453 162.109 14.942C162.109 13.9387 162.496 13.1073 163.27 12.448C164.073 11.76 165.062 11.416 166.237 11.416C167.298 11.416 168.158 11.674 168.817 12.19C169.477 12.706 169.806 13.437 169.806 14.383C169.806 15.5297 169.434 16.447 168.688 17.135C167.943 17.7943 166.954 18.124 165.721 18.124ZM165.377 41.215C163.514 41.215 162.152 40.5557 161.292 39.237C160.461 37.9183 160.045 36.1697 160.045 33.991C160.045 32.701 160.203 31.0527 160.518 29.046C160.862 27.0107 161.292 25.1187 161.808 23.37C162.066 22.4527 162.41 21.822 162.84 21.478C163.27 21.134 163.958 20.962 164.904 20.962C166.366 20.962 167.097 21.4493 167.097 22.424C167.097 23.1407 166.825 24.8033 166.28 27.412C165.592 30.5653 165.248 32.701 165.248 33.819C165.248 34.679 165.363 35.3383 165.592 35.797C165.822 36.2557 166.209 36.485 166.753 36.485C167.269 36.485 167.914 36.1267 168.688 35.41C169.462 34.6933 170.494 33.561 171.784 32.013C172.128 31.6117 172.515 31.411 172.945 31.411C173.318 31.411 173.605 31.583 173.805 31.927C174.035 32.271 174.149 32.744 174.149 33.346C174.149 34.4927 173.877 35.3813 173.332 36.012C170.494 39.4807 167.843 41.215 165.377 41.215ZM186.967 31.411C187.34 31.411 187.627 31.583 187.827 31.927C188.057 32.271 188.171 32.744 188.171 33.346C188.171 34.4927 187.899 35.3813 187.354 36.012C186.122 37.5313 184.774 38.7783 183.312 39.753C181.879 40.7277 180.245 41.215 178.41 41.215C175.888 41.215 174.01 40.0683 172.777 37.775C171.573 35.4817 170.971 32.5147 170.971 28.874C170.971 25.3767 171.416 21.392 172.304 16.92C173.222 12.448 174.555 8.60667 176.303 5.396C178.081 2.18533 180.188 0.579998 182.624 0.579998C184 0.579998 185.075 1.225 185.849 2.515C186.652 3.77633 187.053 5.59667 187.053 7.976C187.053 11.3873 186.107 15.3433 184.215 19.844C182.323 24.3447 179.758 28.8023 176.518 33.217C176.719 34.3923 177.049 35.238 177.507 35.754C177.966 36.2413 178.568 36.485 179.313 36.485C180.489 36.485 181.521 36.1553 182.409 35.496C183.298 34.808 184.43 33.647 185.806 32.013C186.15 31.6117 186.537 31.411 186.967 31.411ZM181.678 4.837C181.019 4.837 180.274 6.02667 179.442 8.406C178.611 10.7853 177.88 13.738 177.249 17.264C176.619 20.79 176.275 24.1727 176.217 27.412C178.253 24.058 179.872 20.704 181.076 17.35C182.28 13.9673 182.882 10.8857 182.882 8.105C182.882 5.92633 182.481 4.837 181.678 4.837ZM202.971 36.528C204.146 36.7573 204.734 37.4023 204.734 38.463C204.734 39.1797 204.404 39.8247 203.745 40.398C203.114 40.9427 202.197 41.215 200.993 41.215C198.929 41.215 197.238 40.5843 195.919 39.323C194.629 38.033 193.984 36.356 193.984 34.292C193.984 33.174 194.557 32.3713 195.704 31.884C196.965 31.3393 197.868 30.766 198.413 30.164C198.958 29.5333 199.23 28.7737 199.23 27.885C199.23 27.369 199.115 26.982 198.886 26.724C198.685 26.466 198.427 26.337 198.112 26.337C197.338 26.337 196.478 26.896 195.532 28.014C194.615 29.132 193.755 30.5797 192.952 32.357C192.149 34.1057 191.519 35.9117 191.06 37.775C190.745 39.1223 190.372 40.0397 189.942 40.527C189.541 40.9857 188.896 41.215 188.007 41.215C187.118 41.215 186.459 40.8997 186.029 40.269C185.628 39.6097 185.355 38.6063 185.212 37.259C185.069 35.9117 184.997 33.9337 184.997 31.325C184.997 26.9103 185.441 22.3093 186.33 17.522C187.247 12.7347 188.58 8.72133 190.329 5.482C192.106 2.214 194.228 0.579998 196.693 0.579998C198.012 0.579998 199.072 1.15333 199.875 2.3C200.706 3.418 201.122 4.88 201.122 6.686C201.122 9.58133 200.276 12.5913 198.585 15.716C196.894 18.812 194.142 22.4383 190.329 26.595C190.243 28.0857 190.2 29.6193 190.2 31.196C191.576 27.6127 193.153 25.0183 194.93 23.413C196.707 21.779 198.37 20.962 199.918 20.962C201.351 20.962 202.498 21.4493 203.358 22.424C204.247 23.3987 204.691 24.6027 204.691 26.036C204.691 27.6127 204.29 29.0603 203.487 30.379C202.684 31.6977 201.308 32.873 199.359 33.905C199.531 34.765 199.875 35.367 200.391 35.711C200.936 36.0263 201.796 36.2987 202.971 36.528ZM195.79 4.837C195.274 4.837 194.701 5.58233 194.07 7.073C193.439 8.535 192.823 10.5273 192.221 13.05C191.648 15.544 191.175 18.2673 190.802 21.22C192.579 19.1273 194.041 16.8483 195.188 14.383C196.363 11.9177 196.951 9.68166 196.951 7.675C196.951 6.75766 196.851 6.05533 196.65 5.568C196.449 5.08067 196.163 4.837 195.79 4.837Z" fill="#90C6CD"/>
</svg>
