<svg width="204" height="29" viewBox="0 0 204 29" fill="none" xmlns="http://www.w3.org/2000/svg">
<path opacity="0.5" d="M24.955 14.263C24.955 16.277 24.6193 18.1263 23.948 19.811C23.2767 21.4957 22.333 22.946 21.117 24.162C19.901 25.378 18.438 26.3217 16.728 26.993C15.018 27.6643 13.118 28 11.028 28H0.559V0.525998H11.028C13.118 0.525998 15.018 0.867998 16.728 1.552C18.438 2.22333 19.901 3.167 21.117 4.383C22.333 5.58633 23.2767 7.03033 23.948 8.715C24.6193 10.3997 24.955 12.249 24.955 14.263ZM19.711 14.263C19.711 12.7557 19.5083 11.4067 19.103 10.216C18.7103 9.01267 18.134 7.99933 17.374 7.176C16.6267 6.34 15.7147 5.70033 14.638 5.257C13.574 4.81367 12.3707 4.592 11.028 4.592H5.689V23.934H11.028C12.3707 23.934 13.574 23.7123 14.638 23.269C15.7147 22.8257 16.6267 22.1923 17.374 21.369C18.134 20.533 18.7103 19.5197 19.103 18.329C19.5083 17.1257 19.711 15.7703 19.711 14.263ZM48.8297 17.626L45.4857 8.487C45.321 8.08167 45.15 7.60033 44.9727 7.043C44.7954 6.48567 44.618 5.884 44.4407 5.238C44.276 5.884 44.105 6.492 43.9277 7.062C43.7504 7.61933 43.5794 8.107 43.4147 8.525L40.0897 17.626H48.8297ZM57.8547 28H53.9027C53.4594 28 53.0984 27.8923 52.8197 27.677C52.541 27.449 52.332 27.1703 52.1927 26.841L50.1407 21.236H38.7597L36.7077 26.841C36.6064 27.1323 36.41 27.3983 36.1187 27.639C35.8274 27.8797 35.4664 28 35.0357 28H31.0457L41.8567 0.525998H47.0627L57.8547 28ZM89.5595 0.525998V28H86.9375C86.5321 28 86.1901 27.9367 85.9115 27.81C85.6455 27.6707 85.3858 27.4427 85.1325 27.126L70.7875 8.81C70.8635 9.646 70.9015 10.4187 70.9015 11.128V28H66.3985V0.525998H69.0775C69.2928 0.525998 69.4765 0.538665 69.6285 0.563998C69.7931 0.576665 69.9325 0.614665 70.0465 0.677998C70.1731 0.728666 70.2935 0.810999 70.4075 0.924999C70.5215 1.02633 70.6481 1.16567 70.7875 1.343L85.1895 19.735C85.1515 19.2917 85.1198 18.8547 85.0945 18.424C85.0691 17.9933 85.0565 17.5943 85.0565 17.227V0.525998H89.5595ZM120.245 21.521C120.523 21.521 120.77 21.6287 120.986 21.844L123 24.029C121.885 25.4097 120.511 26.4673 118.877 27.202C117.255 27.9367 115.305 28.304 113.025 28.304C110.985 28.304 109.149 27.9557 107.515 27.259C105.893 26.5623 104.506 25.5933 103.354 24.352C102.201 23.1107 101.314 21.6287 100.694 19.906C100.086 18.1833 99.7817 16.3023 99.7817 14.263C99.7817 12.1983 100.111 10.311 100.77 8.601C101.428 6.87833 102.353 5.39633 103.544 4.155C104.747 2.91367 106.178 1.951 107.838 1.267C109.497 0.570333 111.334 0.222 113.348 0.222C115.349 0.222 117.122 0.551333 118.668 1.21C120.226 1.86867 121.549 2.73 122.639 3.794L120.929 6.169C120.827 6.321 120.694 6.454 120.53 6.568C120.378 6.682 120.162 6.739 119.884 6.739C119.694 6.739 119.497 6.68833 119.295 6.587C119.092 6.473 118.87 6.34 118.63 6.188C118.389 6.02333 118.11 5.846 117.794 5.656C117.477 5.466 117.11 5.295 116.692 5.143C116.274 4.97833 115.786 4.84533 115.229 4.744C114.684 4.63 114.051 4.573 113.329 4.573C112.1 4.573 110.973 4.79467 109.947 5.238C108.933 5.66867 108.059 6.302 107.325 7.138C106.59 7.96133 106.02 8.97467 105.615 10.178C105.209 11.3687 105.007 12.7303 105.007 14.263C105.007 15.8083 105.222 17.1827 105.653 18.386C106.096 19.5893 106.691 20.6027 107.439 21.426C108.186 22.2493 109.066 22.8827 110.08 23.326C111.093 23.7567 112.182 23.972 113.348 23.972C114.044 23.972 114.671 23.934 115.229 23.858C115.799 23.782 116.318 23.6617 116.787 23.497C117.268 23.3323 117.718 23.1233 118.136 22.87C118.566 22.604 118.991 22.281 119.409 21.901C119.535 21.787 119.668 21.6983 119.808 21.635C119.947 21.559 120.093 21.521 120.245 21.521ZM157.808 14.263C157.808 16.277 157.472 18.1453 156.801 19.868C156.142 21.578 155.205 23.06 153.989 24.314C152.773 25.568 151.31 26.5497 149.6 27.259C147.89 27.9557 145.99 28.304 143.9 28.304C141.823 28.304 139.929 27.9557 138.219 27.259C136.509 26.5497 135.04 25.568 133.811 24.314C132.595 23.06 131.651 21.578 130.98 19.868C130.309 18.1453 129.973 16.277 129.973 14.263C129.973 12.249 130.309 10.387 130.98 8.677C131.651 6.95433 132.595 5.466 133.811 4.212C135.04 2.958 136.509 1.98267 138.219 1.286C139.929 0.576666 141.823 0.222 143.9 0.222C145.293 0.222 146.604 0.386666 147.833 0.715998C149.062 1.03267 150.189 1.48867 151.215 2.084C152.241 2.66667 153.159 3.38233 153.97 4.231C154.793 5.067 155.49 6.00433 156.06 7.043C156.63 8.08167 157.061 9.209 157.352 10.425C157.656 11.641 157.808 12.9203 157.808 14.263ZM152.583 14.263C152.583 12.7557 152.38 11.4067 151.975 10.216C151.57 9.01267 150.993 7.993 150.246 7.157C149.499 6.321 148.587 5.68133 147.51 5.238C146.446 4.79467 145.243 4.573 143.9 4.573C142.557 4.573 141.348 4.79467 140.271 5.238C139.207 5.68133 138.295 6.321 137.535 7.157C136.788 7.993 136.211 9.01267 135.806 10.216C135.401 11.4067 135.198 12.7557 135.198 14.263C135.198 15.7703 135.401 17.1257 135.806 18.329C136.211 19.5197 136.788 20.533 137.535 21.369C138.295 22.1923 139.207 22.8257 140.271 23.269C141.348 23.7123 142.557 23.934 143.9 23.934C145.243 23.934 146.446 23.7123 147.51 23.269C148.587 22.8257 149.499 22.1923 150.246 21.369C150.993 20.533 151.57 19.5197 151.975 18.329C152.38 17.1257 152.583 15.7703 152.583 14.263ZM203.996 0.525998L195.465 28H190.848L184.844 9.228C184.679 8.772 184.527 8.21467 184.388 7.556C184.312 7.87267 184.236 8.17033 184.16 8.449C184.084 8.72767 184.002 8.98733 183.913 9.228L177.852 28H173.216L164.704 0.525998H168.979C169.422 0.525998 169.79 0.633665 170.081 0.849C170.385 1.05167 170.588 1.33033 170.689 1.685L175.363 18.12C175.464 18.5253 175.559 18.9687 175.648 19.45C175.749 19.9187 175.851 20.4127 175.952 20.932C176.053 20.4 176.161 19.8997 176.275 19.431C176.402 18.9623 176.535 18.5253 176.674 18.12L182.07 1.685C182.171 1.39366 182.368 1.12766 182.659 0.886999C182.963 0.646332 183.33 0.525998 183.761 0.525998H185.262C185.705 0.525998 186.066 0.633665 186.345 0.849C186.624 1.06433 186.833 1.343 186.972 1.685L192.349 18.12C192.615 18.9053 192.856 19.811 193.071 20.837C193.236 19.8363 193.419 18.9307 193.622 18.12L198.296 1.685C198.372 1.36833 198.562 1.096 198.866 0.867998C199.183 0.639998 199.556 0.525998 199.987 0.525998H203.996Z" fill="#90C6CD"/>
</svg>
