<svg width="157" height="30" viewBox="0 0 157 30" fill="none" xmlns="http://www.w3.org/2000/svg">
<path opacity="0.5" d="M21.87 9.2C21.15 7.81333 20.15 6.77333 18.87 6.08C17.59 5.36 16.11 5 14.43 5C12.59 5 10.95 5.41333 9.51 6.24C8.07 7.06667 6.93667 8.24 6.11 9.76C5.31 11.28 4.91 13.04 4.91 15.04C4.91 17.04 5.31 18.8133 6.11 20.36C6.93667 21.88 8.07 23.0533 9.51 23.88C10.95 24.7067 12.59 25.12 14.43 25.12C16.91 25.12 18.9233 24.4267 20.47 23.04C22.0167 21.6533 22.9633 19.7733 23.31 17.4H12.87V13.76H28.19V17.32C27.8967 19.48 27.1233 21.4667 25.87 23.28C24.6433 25.0933 23.03 26.5467 21.03 27.64C19.0567 28.7067 16.8567 29.24 14.43 29.24C11.8167 29.24 9.43 28.64 7.27 27.44C5.11 26.2133 3.39 24.52 2.11 22.36C0.856667 20.2 0.23 17.76 0.23 15.04C0.23 12.32 0.856667 9.88 2.11 7.72C3.39 5.56 5.11 3.88 7.27 2.68C9.45667 1.45333 11.8433 0.839998 14.43 0.839998C17.39 0.839998 20.0167 1.57333 22.31 3.04C24.63 4.48 26.31 6.53333 27.35 9.2H21.87ZM31.1675 17.88C31.1675 15.6667 31.6208 13.7067 32.5275 12C33.4608 10.2933 34.7142 8.97333 36.2875 8.04C37.8875 7.08 39.6475 6.6 41.5675 6.6C43.3008 6.6 44.8075 6.94667 46.0875 7.64C47.3942 8.30667 48.4342 9.14667 49.2075 10.16V6.96H53.8075V29H49.2075V25.72C48.4342 26.76 47.3808 27.6267 46.0475 28.32C44.7142 29.0133 43.1942 29.36 41.4875 29.36C39.5942 29.36 37.8608 28.88 36.2875 27.92C34.7142 26.9333 33.4608 25.5733 32.5275 23.84C31.6208 22.08 31.1675 20.0933 31.1675 17.88ZM49.2075 17.96C49.2075 16.44 48.8875 15.12 48.2475 14C47.6342 12.88 46.8208 12.0267 45.8075 11.44C44.7942 10.8533 43.7008 10.56 42.5275 10.56C41.3542 10.56 40.2608 10.8533 39.2475 11.44C38.2342 12 37.4075 12.84 36.7675 13.96C36.1542 15.0533 35.8475 16.36 35.8475 17.88C35.8475 19.4 36.1542 20.7333 36.7675 21.88C37.4075 23.0267 38.2342 23.9067 39.2475 24.52C40.2875 25.1067 41.3808 25.4 42.5275 25.4C43.7008 25.4 44.7942 25.1067 45.8075 24.52C46.8208 23.9333 47.6342 23.08 48.2475 21.96C48.8875 20.8133 49.2075 19.48 49.2075 17.96ZM58.2769 17.96C58.2769 15.6933 58.7302 13.7067 59.6369 12C60.5702 10.2667 61.8502 8.93333 63.4769 8C65.1035 7.06667 66.9702 6.6 69.0769 6.6C71.7435 6.6 73.9435 7.24 75.6769 8.52C77.4369 9.77333 78.6235 11.5733 79.2369 13.92H74.3169C73.9169 12.8267 73.2769 11.9733 72.3969 11.36C71.5169 10.7467 70.4102 10.44 69.0769 10.44C67.2102 10.44 65.7169 11.1067 64.5969 12.44C63.5035 13.7467 62.9569 15.5867 62.9569 17.96C62.9569 20.3333 63.5035 22.1867 64.5969 23.52C65.7169 24.8533 67.2102 25.52 69.0769 25.52C71.7169 25.52 73.4635 24.36 74.3169 22.04H79.2369C78.5969 24.28 77.3969 26.0667 75.6369 27.4C73.8769 28.7067 71.6902 29.36 69.0769 29.36C66.9702 29.36 65.1035 28.8933 63.4769 27.96C61.8502 27 60.5702 25.6667 59.6369 23.96C58.7302 22.2267 58.2769 20.2267 58.2769 17.96ZM93.3413 29.36C91.2613 29.36 89.3813 28.8933 87.7013 27.96C86.0213 27 84.7013 25.6667 83.7413 23.96C82.7813 22.2267 82.3013 20.2267 82.3013 17.96C82.3013 15.72 82.7946 13.7333 83.7813 12C84.7679 10.2667 86.1146 8.93333 87.8213 8C89.5279 7.06667 91.4346 6.6 93.5413 6.6C95.6479 6.6 97.5546 7.06667 99.2613 8C100.968 8.93333 102.315 10.2667 103.301 12C104.288 13.7333 104.781 15.72 104.781 17.96C104.781 20.2 104.275 22.1867 103.261 23.92C102.248 25.6533 100.861 27 99.1013 27.96C97.3679 28.8933 95.4479 29.36 93.3413 29.36ZM93.3413 25.4C94.5146 25.4 95.6079 25.12 96.6213 24.56C97.6613 24 98.5013 23.16 99.1413 22.04C99.7813 20.92 100.101 19.56 100.101 17.96C100.101 16.36 99.7946 15.0133 99.1813 13.92C98.5679 12.8 97.7546 11.96 96.7413 11.4C95.7279 10.84 94.6346 10.56 93.4613 10.56C92.2879 10.56 91.1946 10.84 90.1813 11.4C89.1946 11.96 88.4079 12.8 87.8213 13.92C87.2346 15.0133 86.9413 16.36 86.9413 17.96C86.9413 20.3333 87.5413 22.1733 88.7413 23.48C89.9679 24.76 91.5013 25.4 93.3413 25.4ZM107.769 17.88C107.769 15.6667 108.222 13.7067 109.129 12C110.062 10.2933 111.316 8.97333 112.889 8.04C114.489 7.08 116.249 6.6 118.169 6.6C119.902 6.6 121.409 6.94667 122.689 7.64C123.996 8.30667 125.036 9.14667 125.809 10.16V6.96H130.409V29H125.809V25.72C125.036 26.76 123.982 27.6267 122.649 28.32C121.316 29.0133 119.796 29.36 118.089 29.36C116.196 29.36 114.462 28.88 112.889 27.92C111.316 26.9333 110.062 25.5733 109.129 23.84C108.222 22.08 107.769 20.0933 107.769 17.88ZM125.809 17.96C125.809 16.44 125.489 15.12 124.849 14C124.236 12.88 123.422 12.0267 122.409 11.44C121.396 10.8533 120.302 10.56 119.129 10.56C117.956 10.56 116.862 10.8533 115.849 11.44C114.836 12 114.009 12.84 113.369 13.96C112.756 15.0533 112.449 16.36 112.449 17.88C112.449 19.4 112.756 20.7333 113.369 21.88C114.009 23.0267 114.836 23.9067 115.849 24.52C116.889 25.1067 117.982 25.4 119.129 25.4C120.302 25.4 121.396 25.1067 122.409 24.52C123.422 23.9333 124.236 23.08 124.849 21.96C125.489 20.8133 125.809 19.48 125.809 17.96ZM147.518 6.6C149.252 6.6 150.798 6.96 152.158 7.68C153.545 8.4 154.625 9.46667 155.398 10.88C156.172 12.2933 156.558 14 156.558 16V29H152.038V16.68C152.038 14.7067 151.545 13.2 150.558 12.16C149.572 11.0933 148.225 10.56 146.518 10.56C144.812 10.56 143.452 11.0933 142.438 12.16C141.452 13.2 140.958 14.7067 140.958 16.68V29H136.398V6.96H140.958V9.48C141.705 8.57333 142.652 7.86667 143.798 7.36C144.972 6.85333 146.212 6.6 147.518 6.6Z" fill="#FF8250"/>
</svg>
