<svg width="166" height="55" viewBox="0 0 166 55" fill="none" xmlns="http://www.w3.org/2000/svg">
<path opacity="0.5" d="M22.242 4.794C22.9873 4.794 23.618 4.98033 24.134 5.353C24.65 5.697 24.908 6.127 24.908 6.643C24.908 7.56033 24.6213 8.30567 24.048 8.879C23.4747 9.42366 22.6577 9.696 21.597 9.696C19.9343 9.696 18.673 9.71033 17.813 9.739C17.7557 10.083 17.4977 11.631 17.039 14.383C16.523 17.4503 16.2077 19.328 16.093 20.016L15.19 25.649C14.5593 29.863 14.0577 33.389 13.685 36.227C14.287 36.1983 15.104 36.184 16.136 36.184C17.6553 36.184 18.6873 36.3847 19.232 36.786C19.7767 37.1873 20.049 37.7893 20.049 38.592C20.049 39.3373 19.748 39.968 19.146 40.484C18.5727 41 17.7557 41.258 16.695 41.258C15.9783 41.258 14.846 41.2293 13.298 41.172C11.8647 41.1147 10.9187 41.086 10.46 41.086C8.654 41.086 6.676 41.2437 4.526 41.559C3.58 41.7023 2.90633 41.774 2.505 41.774C1.87433 41.774 1.344 41.602 0.914 41.258C0.484 40.914 0.269 40.4123 0.269 39.753C0.269 38.721 0.727667 37.9183 1.645 37.345C2.56233 36.7717 3.85233 36.4707 5.515 36.442L7.536 36.399L7.665 35.453C8.353 30.8663 8.85467 27.627 9.17 25.735L10.116 20.102C10.6893 16.7767 11.2053 13.351 11.664 9.825L8.052 9.868C7.02 9.868 6.30333 9.71033 5.902 9.395C5.52933 9.051 5.343 8.578 5.343 7.976C5.343 6.02667 6.74767 4.98033 9.557 4.837C10.8757 4.77966 12.481 4.751 14.373 4.751L22.242 4.794ZM27.407 41.215C26.3177 41.215 25.5437 40.6417 25.085 39.495C24.655 38.3483 24.44 36.5137 24.44 33.991C24.44 30.2643 24.9704 26.724 26.031 23.37C26.289 22.5387 26.7047 21.9367 27.278 21.564C27.88 21.1627 28.7114 20.962 29.772 20.962C30.3454 20.962 30.7467 21.0337 30.976 21.177C31.2054 21.3203 31.32 21.5927 31.32 21.994C31.32 22.4527 31.105 23.4847 30.675 25.09C30.3884 26.2367 30.159 27.24 29.987 28.1C29.815 28.96 29.6717 30.0207 29.557 31.282C30.503 28.8167 31.5637 26.81 32.739 25.262C33.9144 23.714 35.061 22.6103 36.179 21.951C37.3257 21.2917 38.372 20.962 39.318 20.962C41.1814 20.962 42.113 21.8937 42.113 23.757C42.113 24.875 41.7977 26.896 41.167 29.82C40.6224 32.314 40.35 33.9623 40.35 34.765C40.35 35.9117 40.7657 36.485 41.597 36.485C42.1704 36.485 42.844 36.141 43.618 35.453C44.4207 34.7363 45.4814 33.5897 46.8 32.013C47.144 31.6117 47.531 31.411 47.961 31.411C48.3337 31.411 48.6204 31.583 48.821 31.927C49.0504 32.271 49.165 32.744 49.165 33.346C49.165 34.4927 48.8927 35.3813 48.348 36.012C47.1154 37.5313 45.7824 38.7783 44.349 39.753C42.9444 40.7277 41.339 41.215 39.533 41.215C38.071 41.215 36.9674 40.7993 36.222 39.968C35.4767 39.108 35.104 37.8753 35.104 36.27C35.104 35.4673 35.3047 34.034 35.706 31.97C36.0787 30.164 36.265 28.917 36.265 28.229C36.265 27.7703 36.1074 27.541 35.792 27.541C35.4194 27.541 34.889 28.0283 34.201 29.003C33.5417 29.949 32.8537 31.2103 32.137 32.787C31.449 34.3637 30.89 36.0263 30.46 37.775C30.1447 39.1223 29.772 40.0397 29.342 40.527C28.9407 40.9857 28.2957 41.215 27.407 41.215ZM70.1101 31.411C70.4827 31.411 70.7694 31.583 70.9701 31.927C71.1994 32.271 71.3141 32.744 71.3141 33.346C71.3141 34.4927 71.0417 35.3813 70.4971 36.012C69.3217 37.4453 68.0317 38.678 66.6271 39.71C65.2224 40.7133 63.8321 41.215 62.4561 41.215C60.2774 41.215 58.6147 39.9393 57.4681 37.388C56.2641 38.9073 55.2034 39.925 54.2861 40.441C53.3974 40.957 52.3511 41.215 51.1471 41.215C49.3984 41.215 47.9507 40.57 46.8041 39.28C45.6861 37.9613 45.1271 36.2557 45.1271 34.163C45.1271 31.8697 45.6144 29.7483 46.5891 27.799C47.5637 25.821 48.8967 24.2157 50.5881 22.983C52.3081 21.7217 54.2287 20.9763 56.3501 20.747C56.8947 15.1857 57.9267 10.4413 59.4461 6.514C60.9941 2.558 63.0151 0.579998 65.5091 0.579998C66.7417 0.579998 67.7594 1.139 68.5621 2.257C69.3934 3.375 69.8091 5.06633 69.8091 7.331C69.8091 10.5417 69.0207 14.297 67.4441 18.597C65.8674 22.897 63.7604 27.3117 61.1231 31.841C61.2377 33.5037 61.4814 34.6933 61.8541 35.41C62.2554 36.1267 62.7571 36.485 63.3591 36.485C64.1331 36.485 64.9214 36.141 65.7241 35.453C66.5267 34.765 67.6017 33.6183 68.9491 32.013C69.2931 31.6117 69.6801 31.411 70.1101 31.411ZM65.0361 4.794C64.4914 4.794 63.9467 5.76866 63.4021 7.718C62.8574 9.63867 62.3844 12.1613 61.9831 15.286C61.6104 18.4107 61.3381 21.6787 61.1661 25.09C64.3767 18.0953 65.9821 12.4767 65.9821 8.234C65.9821 7.14467 65.8817 6.299 65.6811 5.697C65.5091 5.095 65.2941 4.794 65.0361 4.794ZM52.6521 36.872C53.1967 36.872 53.7414 36.657 54.2861 36.227C54.8307 35.7683 55.5187 34.937 56.3501 33.733C56.0634 32.185 55.9201 30.4507 55.9201 28.53C55.9201 27.842 55.9487 26.724 56.0061 25.176C54.4294 25.6633 53.1107 26.724 52.0501 28.358C51.0181 29.9633 50.5021 31.755 50.5021 33.733C50.5021 35.8257 51.2187 36.872 52.6521 36.872ZM89.746 27.799C90.1186 27.799 90.4053 27.9853 90.606 28.358C90.8066 28.7307 90.907 29.2037 90.907 29.777C90.907 31.153 90.4913 31.97 89.66 32.228C87.94 32.83 86.048 33.174 83.984 33.26C83.4393 35.668 82.3643 37.603 80.759 39.065C79.1536 40.4983 77.3333 41.215 75.298 41.215C73.578 41.215 72.1016 40.7993 70.869 39.968C69.665 39.1367 68.7476 38.033 68.117 36.657C67.4863 35.281 67.171 33.7903 67.171 32.185C67.171 30.0063 67.5866 28.0713 68.418 26.38C69.2493 24.66 70.396 23.327 71.858 22.381C73.32 21.4063 74.9396 20.919 76.717 20.919C78.8956 20.919 80.6443 21.6787 81.963 23.198C83.3103 24.6887 84.0986 26.5377 84.328 28.745C85.6753 28.659 87.2806 28.3723 89.144 27.885C89.3733 27.8277 89.574 27.799 89.746 27.799ZM75.642 36.657C76.5593 36.657 77.3476 36.2843 78.007 35.539C78.695 34.7937 79.1536 33.7187 79.383 32.314C78.4943 31.712 77.8063 30.9237 77.319 29.949C76.8603 28.9743 76.631 27.9423 76.631 26.853C76.631 26.3943 76.674 25.9357 76.76 25.477H76.545C75.3983 25.477 74.438 26.036 73.664 27.154C72.9186 28.2433 72.546 29.7913 72.546 31.798C72.546 33.3747 72.847 34.5787 73.449 35.41C74.0796 36.2413 74.8106 36.657 75.642 36.657ZM104.373 28.96C105.176 28.96 105.577 29.562 105.577 30.766C105.577 33.0307 103.8 34.163 100.245 34.163C99.5573 34.163 98.5683 34.034 97.2783 33.776C97.651 35.5533 97.952 37.5313 98.1813 39.71C98.4393 41.86 98.5683 43.6373 98.5683 45.042C98.5683 48.138 98.0667 50.503 97.0633 52.137C96.06 53.771 94.7413 54.588 93.1073 54.588C91.0433 54.588 89.567 53.126 88.6783 50.202C87.8183 47.278 87.3883 42.8633 87.3883 36.958C87.3883 31.454 87.976 25.8783 89.1513 20.231C90.3553 14.555 91.9893 9.868 94.0533 6.17C96.146 2.44333 98.4393 0.579998 100.933 0.579998C102.281 0.579998 103.327 1.182 104.072 2.386C104.846 3.59 105.233 5.20966 105.233 7.245C105.233 13.9817 101.206 21.3203 93.1503 29.261C92.8637 32.0703 92.7203 34.5357 92.7203 36.657C92.7203 39.6097 92.8207 42.634 93.0213 45.73C93.222 48.8547 93.5517 50.417 94.0103 50.417C94.8703 50.417 95.3003 48.9263 95.3003 45.945C95.3003 43.709 95.1427 41.5447 94.8273 39.452C94.5407 37.3593 94.1393 35.152 93.6233 32.83C93.5947 32.4573 93.7093 31.9843 93.9673 31.411C94.254 30.8377 94.598 30.336 94.9993 29.906C95.4007 29.476 95.759 29.261 96.0743 29.261C96.6477 29.261 97.3357 29.2897 98.1383 29.347C98.3963 29.3757 98.6973 29.39 99.0413 29.39C100.188 29.39 101.464 29.2897 102.868 29.089C103.098 29.0603 103.341 29.0317 103.599 29.003C103.857 28.9743 104.115 28.96 104.373 28.96ZM100.03 4.837C99.5143 4.837 98.8693 5.71133 98.0953 7.46C97.35 9.20867 96.6047 11.5307 95.8593 14.426C95.114 17.2927 94.469 20.3313 93.9243 23.542C96.2177 20.9333 97.9807 18.2243 99.2133 15.415C100.446 12.577 101.077 9.92533 101.105 7.46C101.105 5.71133 100.747 4.837 100.03 4.837ZM124.264 27.799C124.636 27.799 124.923 27.9853 125.124 28.358C125.324 28.7307 125.425 29.2037 125.425 29.777C125.425 31.153 125.009 31.97 124.178 32.228C122.458 32.83 120.566 33.174 118.502 33.26C117.957 35.668 116.882 37.603 115.277 39.065C113.671 40.4983 111.851 41.215 109.816 41.215C108.096 41.215 106.619 40.7993 105.387 39.968C104.183 39.1367 103.265 38.033 102.635 36.657C102.004 35.281 101.689 33.7903 101.689 32.185C101.689 30.0063 102.104 28.0713 102.936 26.38C103.767 24.66 104.914 23.327 106.376 22.381C107.838 21.4063 109.457 20.919 111.235 20.919C113.413 20.919 115.162 21.6787 116.481 23.198C117.828 24.6887 118.616 26.5377 118.846 28.745C120.193 28.659 121.798 28.3723 123.662 27.885C123.891 27.8277 124.092 27.799 124.264 27.799ZM110.16 36.657C111.077 36.657 111.865 36.2843 112.525 35.539C113.213 34.7937 113.671 33.7187 113.901 32.314C113.012 31.712 112.324 30.9237 111.837 29.949C111.378 28.9743 111.149 27.9423 111.149 26.853C111.149 26.3943 111.192 25.9357 111.278 25.477H111.063C109.916 25.477 108.956 26.036 108.182 27.154C107.436 28.2433 107.064 29.7913 107.064 31.798C107.064 33.3747 107.365 34.5787 107.967 35.41C108.597 36.2413 109.328 36.657 110.16 36.657ZM143.664 27.799C144.037 27.799 144.323 27.9853 144.524 28.358C144.725 28.7307 144.825 29.2037 144.825 29.777C144.825 31.153 144.409 31.97 143.578 32.228C141.858 32.83 139.966 33.174 137.902 33.26C137.357 35.668 136.282 37.603 134.677 39.065C133.072 40.4983 131.251 41.215 129.216 41.215C127.496 41.215 126.02 40.7993 124.787 39.968C123.583 39.1367 122.666 38.033 122.035 36.657C121.404 35.281 121.089 33.7903 121.089 32.185C121.089 30.0063 121.505 28.0713 122.336 26.38C123.167 24.66 124.314 23.327 125.776 22.381C127.238 21.4063 128.858 20.919 130.635 20.919C132.814 20.919 134.562 21.6787 135.881 23.198C137.228 24.6887 138.017 26.5377 138.246 28.745C139.593 28.659 141.199 28.3723 143.062 27.885C143.291 27.8277 143.492 27.799 143.664 27.799ZM129.56 36.657C130.477 36.657 131.266 36.2843 131.925 35.539C132.613 34.7937 133.072 33.7187 133.301 32.314C132.412 31.712 131.724 30.9237 131.237 29.949C130.778 28.9743 130.549 27.9423 130.549 26.853C130.549 26.3943 130.592 25.9357 130.678 25.477H130.463C129.316 25.477 128.356 26.036 127.582 27.154C126.837 28.2433 126.464 29.7913 126.464 31.798C126.464 33.3747 126.765 34.5787 127.367 35.41C127.998 36.2413 128.729 36.657 129.56 36.657ZM156.786 31.411C157.102 33.7617 157.56 36.0837 158.162 38.377C158.277 38.7497 158.334 39.1367 158.334 39.538C158.334 40.828 157.546 41.473 155.969 41.473C155.081 41.473 154.393 41.2293 153.905 40.742C153.447 40.2547 153.017 39.3373 152.615 37.99L152.572 37.818C151.483 39.1653 150.494 40.0683 149.605 40.527C148.745 40.9857 147.742 41.215 146.595 41.215C144.847 41.215 143.399 40.57 142.252 39.28C141.134 37.9613 140.575 36.2557 140.575 34.163C140.575 31.8697 141.063 29.7483 142.037 27.799C143.012 25.8497 144.345 24.2587 146.036 23.026C147.728 21.7647 149.62 21.005 151.712 20.747C152.257 15.329 153.289 10.6133 154.808 6.6C156.356 2.58666 158.406 0.579998 160.957 0.579998C162.19 0.579998 163.208 1.139 164.01 2.257C164.842 3.375 165.257 5.06633 165.257 7.331C165.257 10.4843 164.483 14.168 162.935 18.382C161.387 22.596 159.338 26.939 156.786 31.411ZM160.484 4.794C159.653 4.794 158.865 6.91533 158.119 11.158C157.403 15.4007 156.915 20.016 156.657 25.004C159.839 18.124 161.43 12.534 161.43 8.234C161.43 7.14467 161.33 6.299 161.129 5.697C160.957 5.095 160.742 4.794 160.484 4.794ZM148.1 36.872C148.674 36.872 149.218 36.657 149.734 36.227C150.279 35.797 150.967 34.9657 151.798 33.733C151.512 31.6403 151.368 29.476 151.368 27.24C151.368 26.3513 151.383 25.6633 151.411 25.176C149.835 25.6347 148.53 26.681 147.498 28.315C146.466 29.949 145.95 31.755 145.95 33.733C145.95 35.8257 146.667 36.872 148.1 36.872Z" fill="#FF8250"/>
</svg>
