<svg width="221" height="29" viewBox="0 0 221 29" fill="none" xmlns="http://www.w3.org/2000/svg">
<path opacity="0.5" d="M5.67 12.04H6.867C7.34833 12.04 7.74733 11.9767 8.064 11.85C8.38067 11.7107 8.653 11.4953 8.881 11.204L16.462 1.609C16.7787 1.20366 17.108 0.924998 17.45 0.772998C17.8047 0.608332 18.248 0.525998 18.78 0.525998H23.188L13.935 11.945C13.3903 12.6417 12.8267 13.1357 12.244 13.427C12.662 13.579 13.0357 13.7943 13.365 14.073C13.707 14.339 14.03 14.6937 14.334 15.137L23.872 28H19.369C18.761 28 18.305 27.9177 18.001 27.753C17.7097 27.5757 17.4627 27.3223 17.26 26.993L9.489 16.847C9.24833 16.505 8.96967 16.2643 8.653 16.125C8.33633 15.9857 7.88033 15.916 7.285 15.916H5.67V28H0.559V0.525998H5.67V12.04ZM46.8258 17.626L43.4818 8.487C43.3171 8.08167 43.1461 7.60033 42.9688 7.043C42.7914 6.48567 42.6141 5.884 42.4368 5.238C42.2721 5.884 42.1011 6.492 41.9238 7.062C41.7464 7.61933 41.5754 8.107 41.4108 8.525L38.0858 17.626H46.8258ZM55.8508 28H51.8988C51.4554 28 51.0945 27.8923 50.8158 27.677C50.5371 27.449 50.3281 27.1703 50.1888 26.841L48.1368 21.236H36.7558L34.7038 26.841C34.6024 27.1323 34.4061 27.3983 34.1148 27.639C33.8234 27.8797 33.4624 28 33.0318 28H29.0418L39.8528 0.525998H45.0588L55.8508 28ZM80.9127 4.725H72.6287V28H67.5177V4.725H59.2337V0.525998H80.9127V4.725ZM102.052 17.626L98.708 8.487C98.5433 8.08167 98.3723 7.60033 98.195 7.043C98.0176 6.48567 97.8403 5.884 97.663 5.238C97.4983 5.884 97.3273 6.492 97.15 7.062C96.9726 7.61933 96.8016 8.107 96.637 8.525L93.312 17.626H102.052ZM111.077 28H107.125C106.682 28 106.321 27.8923 106.042 27.677C105.763 27.449 105.554 27.1703 105.415 26.841L103.363 21.236H91.982L89.93 26.841C89.8286 27.1323 89.6323 27.3983 89.341 27.639C89.0496 27.8797 88.6886 28 88.258 28H84.268L95.079 0.525998H100.285L111.077 28ZM145.005 14.263C145.005 16.277 144.67 18.1453 143.998 19.868C143.34 21.578 142.402 23.06 141.186 24.314C139.97 25.568 138.507 26.5497 136.797 27.259C135.087 27.9557 133.187 28.304 131.097 28.304C129.02 28.304 127.126 27.9557 125.416 27.259C123.706 26.5497 122.237 25.568 121.008 24.314C119.792 23.06 118.849 21.578 118.177 19.868C117.506 18.1453 117.17 16.277 117.17 14.263C117.17 12.249 117.506 10.387 118.177 8.677C118.849 6.95433 119.792 5.466 121.008 4.212C122.237 2.958 123.706 1.98267 125.416 1.286C127.126 0.576666 129.02 0.222 131.097 0.222C132.491 0.222 133.802 0.386666 135.03 0.715998C136.259 1.03267 137.386 1.48867 138.412 2.084C139.438 2.66667 140.357 3.38233 141.167 4.231C141.991 5.067 142.687 6.00433 143.257 7.043C143.827 8.08167 144.258 9.209 144.549 10.425C144.853 11.641 145.005 12.9203 145.005 14.263ZM139.78 14.263C139.78 12.7557 139.578 11.4067 139.172 10.216C138.767 9.01267 138.191 7.993 137.443 7.157C136.696 6.321 135.784 5.68133 134.707 5.238C133.643 4.79467 132.44 4.573 131.097 4.573C129.755 4.573 128.545 4.79467 127.468 5.238C126.404 5.68133 125.492 6.321 124.732 7.157C123.985 7.993 123.409 9.01267 123.003 10.216C122.598 11.4067 122.395 12.7557 122.395 14.263C122.395 15.7703 122.598 17.1257 123.003 18.329C123.409 19.5197 123.985 20.533 124.732 21.369C125.492 22.1923 126.404 22.8257 127.468 23.269C128.545 23.7123 129.755 23.934 131.097 23.934C132.44 23.934 133.643 23.7123 134.707 23.269C135.784 22.8257 136.696 22.1923 137.443 21.369C138.191 20.533 138.767 19.5197 139.172 18.329C139.578 17.1257 139.78 15.7703 139.78 14.263ZM184.986 0.525998V28H180.483V10.254C180.483 9.54467 180.521 8.77833 180.597 7.955L172.294 23.554C171.901 24.3013 171.299 24.675 170.489 24.675H169.767C168.956 24.675 168.354 24.3013 167.962 23.554L159.564 7.898C159.602 8.316 159.633 8.72767 159.659 9.133C159.684 9.53833 159.697 9.912 159.697 10.254V28H155.194V0.525998H159.051C159.279 0.525998 159.475 0.532332 159.64 0.544999C159.804 0.557665 159.95 0.589331 160.077 0.639999C160.216 0.690665 160.336 0.772998 160.438 0.886999C160.552 1.001 160.659 1.153 160.761 1.343L168.988 16.6C169.203 17.0053 169.399 17.4233 169.577 17.854C169.767 18.2847 169.95 18.728 170.128 19.184C170.305 18.7153 170.489 18.2657 170.679 17.835C170.869 17.3917 171.071 16.9673 171.287 16.562L179.4 1.343C179.501 1.153 179.609 1.001 179.723 0.886999C179.837 0.772998 179.957 0.690665 180.084 0.639999C180.223 0.589331 180.375 0.557665 180.54 0.544999C180.704 0.532332 180.901 0.525998 181.129 0.525998H184.986ZM211.332 17.626L207.988 8.487C207.823 8.08167 207.652 7.60033 207.475 7.043C207.297 6.48567 207.12 5.884 206.943 5.238C206.778 5.884 206.607 6.492 206.43 7.062C206.252 7.61933 206.081 8.107 205.917 8.525L202.592 17.626H211.332ZM220.357 28H216.405C215.961 28 215.6 27.8923 215.322 27.677C215.043 27.449 214.834 27.1703 214.695 26.841L212.643 21.236H201.262L199.21 26.841C199.108 27.1323 198.912 27.3983 198.621 27.639C198.329 27.8797 197.968 28 197.538 28H193.548L204.359 0.525998H209.565L220.357 28Z" fill="#FF8250"/>
</svg>
