<svg width="156" height="33" viewBox="0 0 156 33" fill="none" xmlns="http://www.w3.org/2000/svg">
<path d="M0.83 0.609999H6.592V24.776C6.592 25.808 6.764 26.5103 7.108 26.883C7.452 27.227 7.925 27.399 8.527 27.399C8.98567 27.399 9.45867 27.3417 9.946 27.227C10.4333 27.1123 10.8633 26.969 11.236 26.797L12.01 31.183C11.236 31.5557 10.333 31.8423 9.301 32.043C8.269 32.2437 7.33733 32.344 6.506 32.344C4.7 32.344 3.29533 31.871 2.292 30.925C1.31733 29.9503 0.83 28.5743 0.83 26.797V0.609999ZM12.9725 25.335C12.9725 23.873 13.3738 22.5973 14.1765 21.508C15.0078 20.39 16.1545 19.53 17.6165 18.928C19.0785 18.326 20.7555 18.025 22.6475 18.025C23.5935 18.025 24.5538 18.0967 25.5285 18.24C26.5031 18.3833 27.3488 18.6127 28.0655 18.928V17.724C28.0655 16.2907 27.6355 15.187 26.7755 14.413C25.9441 13.639 24.6971 13.252 23.0345 13.252C21.8018 13.252 20.6265 13.467 19.5085 13.897C18.3905 14.327 17.2151 14.9577 15.9825 15.789L14.1335 12.005C15.6241 11.0303 17.1435 10.2993 18.6915 9.812C20.2681 9.32466 21.9165 9.081 23.6365 9.081C26.8471 9.081 29.3411 9.88366 31.1185 11.489C32.9245 13.0943 33.8275 15.3877 33.8275 18.369V25.55C33.8275 26.152 33.9278 26.582 34.1285 26.84C34.3578 27.098 34.7161 27.2557 35.2035 27.313V32C34.6875 32.086 34.2145 32.1577 33.7845 32.215C33.3831 32.2723 33.0391 32.301 32.7525 32.301C31.6058 32.301 30.7315 32.043 30.1295 31.527C29.5561 31.011 29.1978 30.3803 29.0545 29.635L28.9255 28.474C27.9508 29.7353 26.7325 30.71 25.2705 31.398C23.8085 32.086 22.3178 32.43 20.7985 32.43C19.3078 32.43 17.9605 32.129 16.7565 31.527C15.5811 30.8963 14.6495 30.0507 13.9615 28.99C13.3021 27.9007 12.9725 26.6823 12.9725 25.335ZM26.9905 26.496C27.3058 26.152 27.5638 25.808 27.7645 25.464C27.9651 25.12 28.0655 24.8047 28.0655 24.518V22.239C27.3775 21.9523 26.6321 21.7373 25.8295 21.594C25.0268 21.422 24.2671 21.336 23.5505 21.336C22.0598 21.336 20.8271 21.6657 19.8525 22.325C18.9065 22.9557 18.4335 23.8013 18.4335 24.862C18.4335 25.4353 18.5911 25.98 18.9065 26.496C19.2218 27.012 19.6805 27.4277 20.2825 27.743C20.8845 28.0583 21.6011 28.216 22.4325 28.216C23.2925 28.216 24.1381 28.0583 24.9695 27.743C25.8008 27.399 26.4745 26.9833 26.9905 26.496ZM50.9179 32V15.058H47.9509V10.672H50.9179V9.296C50.9179 7.43267 51.2189 5.82733 51.8209 4.48C52.4516 3.104 53.3259 2.04333 54.4439 1.298C55.5906 0.552666 56.9236 0.18 58.4429 0.18C59.3603 0.18 60.2776 0.294666 61.1949 0.523998C62.1409 0.753332 63.0726 1.083 63.9899 1.513L62.8289 5.856C62.3989 5.62666 61.8973 5.44033 61.3239 5.297C60.7506 5.125 60.2059 5.039 59.6899 5.039C58.7153 5.039 57.9699 5.383 57.4539 6.071C56.9379 6.759 56.6799 7.76233 56.6799 9.081V10.672H62.1839V15.058H56.6799V32H50.9179ZM75.569 32.43C73.7344 32.43 72.086 32.129 70.624 31.527C69.162 30.8963 67.915 30.0363 66.883 28.947C65.8797 27.8577 65.1057 26.6107 64.561 25.206C64.0164 23.8013 63.744 22.325 63.744 20.777C63.744 19.2003 64.0164 17.7097 64.561 16.305C65.1057 14.9003 65.8797 13.6533 66.883 12.564C67.915 11.4747 69.162 10.629 70.624 10.027C72.086 9.39633 73.7344 9.081 75.569 9.081C77.4037 9.081 79.0377 9.39633 80.471 10.027C81.933 10.629 83.18 11.4747 84.212 12.564C85.244 13.6533 86.018 14.9003 86.534 16.305C87.0787 17.7097 87.351 19.2003 87.351 20.777C87.351 22.325 87.0787 23.8013 86.534 25.206C86.018 26.6107 85.244 27.8577 84.212 28.947C83.2087 30.0363 81.976 30.8963 80.514 31.527C79.052 32.129 77.4037 32.43 75.569 32.43ZM69.678 20.777C69.678 22.0957 69.936 23.271 70.452 24.303C70.968 25.3063 71.6704 26.0947 72.559 26.668C73.4477 27.2413 74.451 27.528 75.569 27.528C76.6584 27.528 77.6474 27.2413 78.536 26.668C79.4247 26.066 80.127 25.2633 80.643 24.26C81.1877 23.228 81.46 22.0527 81.46 20.734C81.46 19.444 81.1877 18.283 80.643 17.251C80.127 16.219 79.4247 15.4163 78.536 14.843C77.6474 14.2697 76.6584 13.983 75.569 13.983C74.451 13.983 73.4477 14.284 72.559 14.886C71.6704 15.4593 70.968 16.262 70.452 17.294C69.936 18.2973 69.678 19.4583 69.678 20.777ZM112.181 32H106.419V19.358C106.419 17.552 106.104 16.2333 105.473 15.402C104.843 14.5707 103.968 14.155 102.85 14.155C102.076 14.155 101.288 14.3557 100.485 14.757C99.7112 15.1583 99.0089 15.7173 98.3782 16.434C97.7475 17.122 97.2889 17.9247 97.0022 18.842V32H91.2402V9.468H96.4432V13.639C97.0165 12.6643 97.7475 11.8473 98.6362 11.188C99.5249 10.5 100.543 9.984 101.689 9.64C102.865 9.26733 104.097 9.081 105.387 9.081C106.792 9.081 107.939 9.339 108.827 9.855C109.745 10.3423 110.433 11.016 110.891 11.876C111.379 12.7073 111.708 13.6533 111.88 14.714C112.081 15.7747 112.181 16.8497 112.181 17.939V32ZM130.567 30.839C130.08 31.0397 129.492 31.269 128.804 31.527C128.116 31.785 127.371 31.9857 126.568 32.129C125.794 32.301 125.006 32.387 124.203 32.387C123.143 32.387 122.168 32.2007 121.279 31.828C120.391 31.4553 119.674 30.8677 119.129 30.065C118.613 29.2337 118.355 28.1587 118.355 26.84V13.897H115.388V9.468H118.355V2.158H124.117V9.468H128.847V13.897H124.117V24.905C124.146 25.679 124.361 26.238 124.762 26.582C125.164 26.926 125.665 27.098 126.267 27.098C126.869 27.098 127.457 26.9977 128.03 26.797C128.604 26.5963 129.062 26.4243 129.406 26.281L130.567 30.839ZM143.765 32.43C141.959 32.43 140.325 32.129 138.863 31.527C137.401 30.8963 136.154 30.0507 135.122 28.99C134.09 27.9007 133.288 26.668 132.714 25.292C132.17 23.8873 131.897 22.411 131.897 20.863C131.897 18.713 132.37 16.7493 133.316 14.972C134.291 13.1947 135.667 11.7757 137.444 10.715C139.25 9.62566 141.372 9.081 143.808 9.081C146.274 9.081 148.381 9.62566 150.129 10.715C151.878 11.7757 153.211 13.1947 154.128 14.972C155.074 16.7207 155.547 18.6127 155.547 20.648C155.547 20.992 155.533 21.3503 155.504 21.723C155.476 22.067 155.447 22.3537 155.418 22.583H138.003C138.118 23.7297 138.448 24.733 138.992 25.593C139.566 26.453 140.282 27.1123 141.142 27.571C142.031 28.001 142.977 28.216 143.98 28.216C145.127 28.216 146.202 27.9437 147.205 27.399C148.237 26.8257 148.94 26.0803 149.312 25.163L154.257 26.539C153.713 27.6857 152.924 28.7033 151.892 29.592C150.889 30.4807 149.699 31.183 148.323 31.699C146.947 32.1863 145.428 32.43 143.765 32.43ZM137.874 18.928H149.656C149.542 17.7813 149.212 16.7923 148.667 15.961C148.151 15.101 147.463 14.4417 146.603 13.983C145.743 13.4957 144.783 13.252 143.722 13.252C142.69 13.252 141.744 13.4957 140.884 13.983C140.053 14.4417 139.365 15.101 138.82 15.961C138.304 16.7923 137.989 17.7813 137.874 18.928Z" fill="#FF8250"/>
</svg>
