<svg width="79" height="32" viewBox="0 0 79 32" fill="none" xmlns="http://www.w3.org/2000/svg">
<path opacity="0.5" d="M30.03 3.2V31H25.47V11.96L16.99 31H13.83L5.31 11.96V31H0.75V3.2H5.67L15.43 25L25.15 3.2H30.03ZM38.3434 6.04C37.5168 6.04 36.8234 5.76 36.2634 5.2C35.7034 4.64 35.4234 3.94667 35.4234 3.12C35.4234 2.29333 35.7034 1.6 36.2634 1.04C36.8234 0.479999 37.5168 0.199998 38.3434 0.199998C39.1434 0.199998 39.8234 0.479999 40.3834 1.04C40.9434 1.6 41.2234 2.29333 41.2234 3.12C41.2234 3.94667 40.9434 4.64 40.3834 5.2C39.8234 5.76 39.1434 6.04 38.3434 6.04ZM40.5834 8.96V31H36.0234V8.96H40.5834ZM51.1303 1.4V31H46.5703V1.4H51.1303ZM66.6772 31.36C64.5972 31.36 62.7172 30.8933 61.0372 29.96C59.3572 29 58.0372 27.6667 57.0772 25.96C56.1172 24.2267 55.6372 22.2267 55.6372 19.96C55.6372 17.72 56.1305 15.7333 57.1172 14C58.1039 12.2667 59.4505 10.9333 61.1572 10C62.8639 9.06667 64.7705 8.6 66.8772 8.6C68.9839 8.6 70.8905 9.06667 72.5972 10C74.3039 10.9333 75.6505 12.2667 76.6372 14C77.6239 15.7333 78.1172 17.72 78.1172 19.96C78.1172 22.2 77.6105 24.1867 76.5972 25.92C75.5839 27.6533 74.1972 29 72.4372 29.96C70.7039 30.8933 68.7839 31.36 66.6772 31.36ZM66.6772 27.4C67.8505 27.4 68.9439 27.12 69.9572 26.56C70.9972 26 71.8372 25.16 72.4772 24.04C73.1172 22.92 73.4372 21.56 73.4372 19.96C73.4372 18.36 73.1305 17.0133 72.5172 15.92C71.9039 14.8 71.0905 13.96 70.0772 13.4C69.0639 12.84 67.9705 12.56 66.7972 12.56C65.6239 12.56 64.5305 12.84 63.5172 13.4C62.5305 13.96 61.7439 14.8 61.1572 15.92C60.5705 17.0133 60.2772 18.36 60.2772 19.96C60.2772 22.3333 60.8772 24.1733 62.0772 25.48C63.3039 26.76 64.8372 27.4 66.6772 27.4Z" fill="#90C6CD"/>
</svg>
