<svg width="178" height="32" viewBox="0 0 178 32" fill="none" xmlns="http://www.w3.org/2000/svg">
<path opacity="0.5" d="M16.9 10.672C16.76 9.244 16.396 7.956 15.808 6.808C15.22 5.66 14.408 4.75 13.372 4.078C12.336 3.378 11.048 3.042 9.508 3.07C7.94 3.07 6.694 3.504 5.77 4.372C4.846 5.24 4.384 6.29 4.384 7.522C4.384 8.614 4.692 9.538 5.308 10.294C5.924 11.022 6.75 11.68 7.786 12.268C8.85 12.856 10.04 13.444 11.356 14.032C12.42 14.48 13.498 14.984 14.59 15.544C15.682 16.104 16.676 16.748 17.572 17.476C18.468 18.176 19.182 19.03 19.714 20.038C20.246 21.018 20.512 22.18 20.512 23.524C20.512 25.092 20.106 26.492 19.294 27.724C18.482 28.956 17.32 29.922 15.808 30.622C14.324 31.322 12.518 31.672 10.39 31.672C9.186 31.672 7.912 31.49 6.568 31.126C5.252 30.762 4.048 30.244 2.956 29.572L3.166 31.336H0.604L0.436 22.096H2.452C2.676 24.532 3.544 26.38 5.056 27.64C6.596 28.872 8.43 29.488 10.558 29.488C11.622 29.488 12.588 29.292 13.456 28.9C14.324 28.508 15.01 27.948 15.514 27.22C16.018 26.492 16.27 25.638 16.27 24.658C16.27 23.51 15.92 22.544 15.22 21.76C14.548 20.976 13.68 20.304 12.616 19.744C11.58 19.184 10.488 18.652 9.34 18.148C8.192 17.644 7.072 17.112 5.98 16.552C4.916 15.992 3.95 15.348 3.082 14.62C2.214 13.892 1.528 13.038 1.024 12.058C0.52 11.05 0.268 9.874 0.268 8.53C0.268 7.746 0.408 6.92 0.688 6.052C0.968 5.184 1.444 4.358 2.116 3.574C2.788 2.79 3.698 2.16 4.846 1.684C6.022 1.18 7.492 0.927999 9.256 0.927999C10.32 0.927999 11.51 1.082 12.826 1.39C14.17 1.698 15.388 2.244 16.48 3.028L16.312 1.264H18.832V10.672H16.9ZM24.5522 31V29.11C25.3922 29.11 26.0362 28.886 26.4842 28.438C26.9322 27.99 27.3102 27.388 27.6182 26.632C27.9262 25.848 28.2622 24.98 28.6262 24.028L37.1102 0.801998H38.7902L47.9882 24.364C48.2122 24.896 48.4642 25.624 48.7442 26.548C49.0242 27.444 49.1502 28.214 49.1222 28.858C49.5982 28.802 50.0602 28.774 50.5082 28.774C50.9842 28.746 51.4322 28.718 51.8522 28.69V31H41.6462V29.152C42.6262 29.124 43.2702 28.914 43.5782 28.522C43.9142 28.102 44.0402 27.598 43.9562 27.01C43.9002 26.422 43.7602 25.834 43.5362 25.246L42.2762 21.844L31.9862 22.096L30.7682 25.75C30.6002 26.31 30.4182 26.842 30.2222 27.346C30.0262 27.85 29.8302 28.34 29.6342 28.816C30.1382 28.76 30.6702 28.732 31.2302 28.732C31.8182 28.704 32.3362 28.676 32.7842 28.648V31H24.5522ZM32.7422 19.828H41.5622L38.9162 12.73C38.5802 11.806 38.2582 10.896 37.9502 10C37.6422 9.076 37.3622 8.194 37.1102 7.354H37.0682C36.8442 8.054 36.5922 8.824 36.3122 9.664C36.0322 10.504 35.7102 11.414 35.3462 12.394L32.7422 19.828ZM71.8714 31.42C70.7234 28.788 69.5754 26.156 68.4274 23.524C67.2794 20.892 66.1454 18.246 65.0254 15.586C64.6894 14.802 64.3394 13.948 63.9754 13.024C63.6114 12.1 63.2474 11.12 62.8834 10.084C62.5194 9.048 62.1694 7.998 61.8334 6.934C61.8334 7.662 61.8334 8.362 61.8334 9.034C61.8334 9.706 61.8334 10.35 61.8334 10.966C61.8054 11.834 61.7774 12.856 61.7494 14.032C61.7214 15.18 61.6794 16.398 61.6234 17.686C61.5954 18.974 61.5674 20.262 61.5394 21.55C61.5394 22.81 61.5254 24.028 61.4974 25.204C61.4974 25.876 61.4834 26.534 61.4554 27.178C61.4274 27.822 61.3854 28.382 61.3294 28.858C61.8334 28.802 62.3654 28.774 62.9254 28.774C63.5134 28.746 64.0314 28.718 64.4794 28.69V31H55.9534V29.152C56.7374 29.124 57.3394 28.97 57.7594 28.69C58.1794 28.41 58.4594 27.99 58.5994 27.43C58.7674 26.87 58.8654 26.184 58.8934 25.372L59.4814 7.228C59.5094 6.612 59.5374 5.996 59.5654 5.38C59.5934 4.764 59.6214 4.218 59.6494 3.742C59.1454 3.77 58.6134 3.798 58.0534 3.826C57.4934 3.826 57.0034 3.84 56.5834 3.868V1.6H63.9334L70.8634 18.148C71.1994 18.904 71.5354 19.716 71.8714 20.584C72.2074 21.424 72.5434 22.264 72.8794 23.104C73.2434 23.916 73.5654 24.686 73.8454 25.414H73.9294C74.2374 24.574 74.5874 23.65 74.9794 22.642C75.3714 21.634 75.7074 20.738 75.9874 19.954C77.1914 16.93 78.4094 13.906 79.6414 10.882C80.9014 7.858 82.1334 4.764 83.3374 1.6H90.7294V3.448C90.0574 3.448 89.4834 3.574 89.0074 3.826C88.5594 4.05 88.2234 4.47 87.9994 5.086C87.8034 5.702 87.7334 6.584 87.7894 7.732L88.7134 25.834C88.7694 26.394 88.7834 26.94 88.7554 27.472C88.7554 28.004 88.7414 28.452 88.7134 28.816C89.2174 28.788 89.7494 28.774 90.3094 28.774C90.8974 28.746 91.4014 28.718 91.8214 28.69V31H81.6574V29.152C82.4694 29.124 83.0854 28.956 83.5054 28.648C83.9534 28.34 84.2474 27.864 84.3874 27.22C84.5274 26.548 84.5694 25.68 84.5134 24.616L83.8414 12.394C83.8134 11.974 83.7854 11.484 83.7574 10.924C83.7294 10.336 83.6874 9.734 83.6314 9.118C83.6034 8.474 83.5754 7.858 83.5474 7.27C83.4634 7.466 83.3794 7.676 83.2954 7.9C83.2114 8.096 83.1274 8.32 83.0434 8.572L74.0134 31.42H71.8714ZM98.1024 31V29.152C99.0264 29.124 99.6844 28.942 100.076 28.606C100.496 28.242 100.762 27.71 100.874 27.01C100.986 26.31 101.042 25.428 101.042 24.364V7.228C101.042 6.472 101.056 5.8 101.084 5.212C101.112 4.596 101.14 4.106 101.168 3.742C100.692 3.77 100.174 3.798 99.6144 3.826C99.0544 3.854 98.5504 3.882 98.1024 3.91V1.6C99.7824 1.572 101.462 1.558 103.142 1.558C104.822 1.53 106.544 1.516 108.308 1.516C111.612 1.516 114.202 2.118 116.078 3.322C117.954 4.498 118.85 6.346 118.766 8.866C118.738 9.734 118.472 10.602 117.968 11.47C117.492 12.31 116.764 13.066 115.784 13.738C114.804 14.382 113.586 14.858 112.13 15.166V15.25C115.126 15.39 117.366 16.174 118.85 17.602C120.334 19.002 121.076 20.71 121.076 22.726C121.076 24.462 120.628 25.96 119.732 27.22C118.864 28.452 117.674 29.39 116.162 30.034C114.678 30.678 112.97 31 111.038 31H98.1024ZM105.368 28.9C105.844 28.9 106.362 28.914 106.922 28.942C107.482 28.942 108.014 28.942 108.518 28.942C109.05 28.942 109.442 28.942 109.694 28.942C111.71 28.914 113.292 28.368 114.44 27.304C115.588 26.24 116.162 24.756 116.162 22.852C116.162 21.284 115.84 20.066 115.196 19.198C114.58 18.302 113.768 17.672 112.76 17.308C111.752 16.944 110.674 16.762 109.526 16.762C108.742 16.762 108.028 16.776 107.384 16.804C106.768 16.804 106.138 16.818 105.494 16.846V25.456C105.494 26.212 105.48 26.884 105.452 27.472C105.452 28.06 105.424 28.536 105.368 28.9ZM105.494 14.788L108.266 14.704C109.722 14.676 110.87 14.368 111.71 13.78C112.578 13.192 113.194 12.436 113.558 11.512C113.922 10.588 114.09 9.622 114.062 8.614C114.062 7.214 113.768 6.15 113.18 5.422C112.592 4.694 111.864 4.19 110.996 3.91C110.128 3.63 109.274 3.49 108.434 3.49C107.65 3.49 107.048 3.602 106.628 3.826C106.208 4.05 105.914 4.442 105.746 5.002C105.578 5.534 105.494 6.332 105.494 7.396V14.788ZM141.404 20.374C141.404 19.17 141.222 18.302 140.858 17.77C140.522 17.238 140.004 16.916 139.304 16.804C138.604 16.664 137.736 16.622 136.7 16.678L134.264 16.762V25.498C134.264 26.254 134.25 26.926 134.222 27.514C134.222 28.074 134.194 28.536 134.138 28.9L141.362 28.816C142.454 28.788 143.434 28.592 144.302 28.228C145.17 27.836 145.856 27.178 146.36 26.254C146.864 25.33 147.116 24.07 147.116 22.474H148.964L148.712 31H126.872V29.152C127.796 29.096 128.454 28.9 128.846 28.564C129.266 28.228 129.532 27.724 129.644 27.052C129.756 26.38 129.812 25.526 129.812 24.49V7.018C129.812 6.402 129.826 5.814 129.854 5.254C129.882 4.666 129.91 4.162 129.938 3.742C129.462 3.77 128.944 3.798 128.384 3.826C127.824 3.854 127.32 3.882 126.872 3.91V1.6H147.368L147.578 9.202H145.73C145.73 7.606 145.464 6.388 144.932 5.548C144.428 4.708 143.756 4.148 142.916 3.868C142.104 3.588 141.222 3.462 140.27 3.49L137.33 3.574C136.462 3.574 135.804 3.728 135.356 4.036C134.908 4.316 134.614 4.792 134.474 5.464C134.334 6.108 134.264 6.99 134.264 8.11V14.704H141.194L140.942 11.092H143.252V20.374H141.404ZM155.56 31V29.152C156.484 29.096 157.142 28.9 157.534 28.564C157.954 28.228 158.22 27.724 158.332 27.052C158.444 26.38 158.5 25.526 158.5 24.49V7.018C158.5 6.402 158.514 5.814 158.542 5.254C158.57 4.666 158.598 4.162 158.626 3.742C158.15 3.77 157.632 3.798 157.072 3.826C156.512 3.854 156.008 3.882 155.56 3.91V1.6H165.892V3.448C164.996 3.476 164.338 3.672 163.918 4.036C163.498 4.372 163.232 4.876 163.12 5.548C163.008 6.192 162.952 7.046 162.952 8.11V25.498C162.952 26.254 162.938 26.926 162.91 27.514C162.91 28.074 162.882 28.536 162.826 28.9L169.924 28.816C171.66 28.788 172.99 28.228 173.914 27.136C174.838 26.016 175.3 24.252 175.3 21.844H177.19L176.938 31H155.56Z" fill="#FF8250"/>
</svg>
