<svg width="196" height="33" viewBox="0 0 196 33" fill="none" xmlns="http://www.w3.org/2000/svg">
<path d="M0.658 23.572V9.468H6.42V22.325C6.42 24.045 6.73533 25.3493 7.366 26.238C7.99667 27.098 8.92833 27.528 10.161 27.528C10.9063 27.528 11.6373 27.3847 12.354 27.098C13.0993 26.7827 13.773 26.324 14.375 25.722C15.0057 25.12 15.536 24.3603 15.966 23.443V9.468H21.728V25.55C21.728 26.152 21.8283 26.582 22.029 26.84C22.2583 27.098 22.6167 27.2557 23.104 27.313V32C22.5307 32.086 22.0433 32.1433 21.642 32.172C21.2693 32.2293 20.9253 32.258 20.61 32.258C19.578 32.258 18.7323 32.0287 18.073 31.57C17.4423 31.0827 17.0697 30.4233 16.955 29.592L16.826 27.786C15.8227 29.3053 14.5327 30.4663 12.956 31.269C11.3793 32.043 9.645 32.43 7.753 32.43C5.431 32.43 3.668 31.6847 2.464 30.194C1.26 28.6747 0.658 26.4673 0.658 23.572ZM27.4111 0.609999H33.1731V24.776C33.1731 25.808 33.3451 26.5103 33.6891 26.883C34.0331 27.227 34.5061 27.399 35.1081 27.399C35.5667 27.399 36.0397 27.3417 36.5271 27.227C37.0144 27.1123 37.4444 26.969 37.8171 26.797L38.5911 31.183C37.8171 31.5557 36.9141 31.8423 35.8821 32.043C34.8501 32.2437 33.9184 32.344 33.0871 32.344C31.2811 32.344 29.8764 31.871 28.8731 30.925C27.8984 29.9503 27.4111 28.5743 27.4111 26.797V0.609999ZM54.3516 30.839C53.8642 31.0397 53.2766 31.269 52.5886 31.527C51.9006 31.785 51.1552 31.9857 50.3526 32.129C49.5786 32.301 48.7902 32.387 47.9876 32.387C46.9269 32.387 45.9522 32.2007 45.0636 31.828C44.1749 31.4553 43.4582 30.8677 42.9136 30.065C42.3976 29.2337 42.1396 28.1587 42.1396 26.84V13.897H39.1726V9.468H42.1396V2.158H47.9016V9.468H52.6316V13.897H47.9016V24.905C47.9302 25.679 48.1452 26.238 48.5466 26.582C48.9479 26.926 49.4496 27.098 50.0516 27.098C50.6536 27.098 51.2412 26.9977 51.8146 26.797C52.3879 26.5963 52.8466 26.4243 53.1906 26.281L54.3516 30.839ZM70.7685 14.456C69.0198 14.456 67.4575 14.8 66.0815 15.488C64.7055 16.1473 63.7165 17.1077 63.1145 18.369V32H57.3525V9.468H62.6415V14.284C63.4442 12.736 64.4618 11.5177 65.6945 10.629C66.9272 9.74033 68.2315 9.253 69.6075 9.167C69.9228 9.167 70.1665 9.167 70.3385 9.167C70.5105 9.167 70.6538 9.18133 70.7685 9.21V14.456ZM72.3074 25.335C72.3074 23.873 72.7088 22.5973 73.5114 21.508C74.3428 20.39 75.4894 19.53 76.9514 18.928C78.4134 18.326 80.0904 18.025 81.9824 18.025C82.9284 18.025 83.8888 18.0967 84.8634 18.24C85.8381 18.3833 86.6838 18.6127 87.4004 18.928V17.724C87.4004 16.2907 86.9704 15.187 86.1104 14.413C85.2791 13.639 84.0321 13.252 82.3694 13.252C81.1368 13.252 79.9614 13.467 78.8434 13.897C77.7254 14.327 76.5501 14.9577 75.3174 15.789L73.4684 12.005C74.9591 11.0303 76.4784 10.2993 78.0264 9.812C79.6031 9.32466 81.2514 9.081 82.9714 9.081C86.1821 9.081 88.6761 9.88366 90.4534 11.489C92.2594 13.0943 93.1624 15.3877 93.1624 18.369V25.55C93.1624 26.152 93.2628 26.582 93.4634 26.84C93.6928 27.098 94.0511 27.2557 94.5384 27.313V32C94.0224 32.086 93.5494 32.1577 93.1194 32.215C92.7181 32.2723 92.3741 32.301 92.0874 32.301C90.9408 32.301 90.0664 32.043 89.4644 31.527C88.8911 31.011 88.5328 30.3803 88.3894 29.635L88.2604 28.474C87.2858 29.7353 86.0674 30.71 84.6054 31.398C83.1434 32.086 81.6528 32.43 80.1334 32.43C78.6428 32.43 77.2954 32.129 76.0914 31.527C74.9161 30.8963 73.9844 30.0507 73.2964 28.99C72.6371 27.9007 72.3074 26.6823 72.3074 25.335ZM86.3254 26.496C86.6408 26.152 86.8988 25.808 87.0994 25.464C87.3001 25.12 87.4004 24.8047 87.4004 24.518V22.239C86.7124 21.9523 85.9671 21.7373 85.1644 21.594C84.3618 21.422 83.6021 21.336 82.8854 21.336C81.3948 21.336 80.1621 21.6657 79.1874 22.325C78.2414 22.9557 77.7684 23.8013 77.7684 24.862C77.7684 25.4353 77.9261 25.98 78.2414 26.496C78.5568 27.012 79.0154 27.4277 79.6174 27.743C80.2194 28.0583 80.9361 28.216 81.7674 28.216C82.6274 28.216 83.4731 28.0583 84.3044 27.743C85.1358 27.399 85.8094 26.9833 86.3254 26.496ZM143.879 32H138.117V19.358C138.117 17.5807 137.802 16.2763 137.171 15.445C136.569 14.585 135.723 14.155 134.634 14.155C133.516 14.155 132.441 14.5993 131.409 15.488C130.406 16.348 129.689 17.4803 129.259 18.885V32H123.497V19.358C123.497 17.552 123.182 16.2333 122.551 15.402C121.949 14.5707 121.103 14.155 120.014 14.155C118.896 14.155 117.821 14.585 116.789 15.445C115.786 16.305 115.069 17.4373 114.639 18.842V32H108.877V9.468H114.08V13.639C114.94 12.177 116.087 11.059 117.52 10.285C118.953 9.48233 120.602 9.081 122.465 9.081C124.328 9.081 125.776 9.53966 126.808 10.457C127.869 11.3743 128.542 12.5067 128.829 13.854C129.746 12.306 130.907 11.1307 132.312 10.328C133.745 9.49667 135.351 9.081 137.128 9.081C138.533 9.081 139.665 9.339 140.525 9.855C141.414 10.3423 142.102 11.016 142.589 11.876C143.076 12.7073 143.406 13.6533 143.578 14.714C143.779 15.7747 143.879 16.8497 143.879 17.939V32ZM148.895 32V9.468H154.657V32H148.895ZM148.895 6.329V0.609999H154.657V6.329H148.895ZM159.812 0.609999H165.574V24.776C165.574 25.808 165.746 26.5103 166.09 26.883C166.434 27.227 166.907 27.399 167.509 27.399C167.968 27.399 168.441 27.3417 168.928 27.227C169.416 27.1123 169.846 26.969 170.218 26.797L170.992 31.183C170.218 31.5557 169.315 31.8423 168.283 32.043C167.251 32.2437 166.32 32.344 165.488 32.344C163.682 32.344 162.278 31.871 161.274 30.925C160.3 29.9503 159.812 28.5743 159.812 26.797V0.609999ZM188.897 32L182.318 22.282L179.265 25.292V32H173.503V0.609999H179.265V19.616L188.338 9.511H194.444L186.059 19.057L195.046 32H188.897Z" fill="#90C6CD"/>
</svg>
