<svg width="189" height="35" viewBox="0 0 189 35" fill="none" xmlns="http://www.w3.org/2000/svg">
<path d="M14.6366 4.86081V29.4062H9.44706V4.86081H14.6366ZM40.5633 13.4541H35.3139C35.218 12.775 35.0222 12.1717 34.7266 11.6444C34.431 11.109 34.0514 10.6536 33.588 10.2781C33.1246 9.90253 32.5893 9.61489 31.982 9.41514C31.3828 9.21539 30.7316 9.11551 30.0284 9.11551C28.758 9.11551 27.6514 9.43112 26.7086 10.0623C25.7658 10.6856 25.0347 11.5964 24.5153 12.7949C23.996 13.9854 23.7363 15.4316 23.7363 17.1335C23.7363 18.8833 23.996 20.3535 24.5153 21.544C25.0427 22.7346 25.7777 23.6334 26.7206 24.2407C27.6634 24.8479 28.754 25.1515 29.9925 25.1515C30.6876 25.1515 31.3308 25.0597 31.9221 24.8759C32.5213 24.6921 33.0527 24.4245 33.5161 24.0729C33.9795 23.7133 34.363 23.2779 34.6667 22.7665C34.9783 22.2552 35.194 21.6719 35.3139 21.0167L40.5633 21.0407C40.4275 22.1673 40.0879 23.2539 39.5446 24.3006C39.0093 25.3393 38.2862 26.2702 37.3753 27.0931C36.4724 27.9081 35.3938 28.5553 34.1393 29.0347C32.8929 29.5061 31.4826 29.7418 29.9086 29.7418C27.7193 29.7418 25.7618 29.2464 24.0359 28.2557C22.318 27.2649 20.9597 25.8307 19.961 23.953C18.9702 22.0754 18.4748 19.8022 18.4748 17.1335C18.4748 14.4569 18.9782 12.1797 19.9849 10.302C20.9917 8.42437 22.358 6.99415 24.0838 6.01137C25.8097 5.02061 27.7513 4.52522 29.9086 4.52522C31.3308 4.52522 32.6492 4.72497 33.8637 5.12448C35.0861 5.52398 36.1688 6.10725 37.1116 6.8743C38.0545 7.63335 38.8215 8.5642 39.4128 9.66682C40.012 10.7695 40.3955 12.0319 40.5633 13.4541ZM44.2847 29.4062V4.86081H49.4742V14.9882H60.0091V4.86081H65.1867V29.4062H60.0091V19.2669H49.4742V29.4062H44.2847ZM74.6549 4.86081V29.4062H69.4653V4.86081H74.6549ZM77.9897 9.13948V4.86081H98.1486V9.13948H90.634V29.4062H85.5044V9.13948H77.9897ZM102.7 29.4062H97.1389L105.612 4.86081H112.3L120.761 29.4062H115.2L109.052 10.4698H108.86L102.7 29.4062ZM102.352 19.7583H115.488V23.8092H102.352V19.7583ZM144.246 4.86081V29.4062H139.764L129.085 13.9575H128.905V29.4062H123.716V4.86081H128.27L138.865 20.2976H139.081V4.86081H144.246Z" fill="#1E1E1E"/>
</svg>
